<svg width="675" height="649" viewBox="0 0 675 649" fill="none" xmlns="http://www.w3.org/2000/svg">
<g clip-path="url(#clip0)">
<path d="M450.664 81C420.567 81.0176 391.002 88.9357 364.924 103.963C338.847 118.99 317.171 140.599 302.064 166.63C286.957 140.599 265.281 118.989 239.204 103.962C213.127 88.9355 183.561 81.0174 153.464 81H0V176.451C0 268.289 58.584 346.693 140.34 376.275C125.456 389.186 113.521 405.145 105.343 423.071C97.1651 440.997 92.9352 460.472 92.94 480.175V563.14H209.61C227.551 563.139 245.245 558.961 261.292 550.938C277.339 542.915 291.298 531.266 302.064 516.914C312.83 531.266 326.789 542.915 342.837 550.938C358.884 558.961 376.579 563.139 394.52 563.14H511.186V480.174C511.191 460.471 506.961 440.996 498.783 423.07C490.605 405.144 478.67 389.185 463.786 376.274C545.542 346.692 604.127 268.288 604.127 176.45V81H450.664Z" fill="#E0E8FF"/>
<g clip-path="url(#clip1)">
<path d="M64.799 384C62.6085 384.001 60.4568 384.577 58.5589 385.671C56.661 386.765 55.0834 388.337 53.984 390.232C52.8846 388.337 51.307 386.765 49.4091 385.671C47.5112 384.577 45.3594 384.001 43.169 384H32V390.947C32.0037 394.126 32.9859 397.228 34.8132 399.829C36.6406 402.431 39.2245 404.408 42.214 405.49C41.1307 406.43 40.262 407.591 39.6667 408.896C39.0715 410.201 38.7636 411.618 38.764 413.052V419.09H47.255C48.5607 419.09 49.8486 418.786 51.0165 418.202C52.1844 417.618 53.2004 416.771 53.984 415.726C54.7676 416.771 55.7835 417.618 56.9515 418.202C58.1194 418.786 59.4072 419.09 60.713 419.09H69.204V413.052C69.2045 411.618 68.8968 410.201 68.3017 408.896C67.7066 407.591 66.8381 406.43 65.755 405.49C68.7451 404.408 71.3296 402.432 73.1575 399.83C74.9854 397.228 75.9681 394.127 75.972 390.947V384H64.799Z" fill="#E0E8FF"/>
</g>
</g>
<g clip-path="url(#clip2)">
<path d="M647.082 563C641.733 563.002 636.478 564.409 631.844 567.08C627.209 569.75 623.357 573.591 620.672 578.217C617.988 573.592 614.137 569.753 609.505 567.082C604.872 564.412 599.619 563.004 594.272 563H567.002V579.961C567.01 587.724 569.407 595.297 573.869 601.651C578.33 608.004 584.639 612.831 591.938 615.474C589.293 617.768 587.173 620.604 585.72 623.79C584.267 626.975 583.515 630.436 583.516 633.937V648.674H604.247C607.435 648.674 610.579 647.932 613.431 646.506C616.282 645.08 618.763 643.01 620.676 640.46C622.589 643.01 625.07 645.08 627.921 646.506C630.773 647.931 633.917 648.674 637.105 648.674H657.836V633.933C657.837 630.432 657.086 626.971 655.632 623.786C654.179 620.6 652.059 617.764 649.414 615.47C656.713 612.827 663.022 608.002 667.483 601.649C671.945 595.297 674.343 587.725 674.352 579.962V563H647.082Z" fill="#E0E8FF"/>
</g>
<g clip-path="url(#clip3)">
<path d="M239.598 0C236.085 0.00211689 232.635 0.9263 229.591 2.68011C226.548 4.43393 224.018 6.95594 222.255 9.99402C220.492 6.95594 217.962 4.43393 214.919 2.68011C211.875 0.9263 208.425 0.00211689 204.912 0H187V11.14C187.006 16.2386 188.581 21.2119 191.511 25.3843C194.441 29.5567 198.585 32.7261 203.379 34.462C201.642 35.969 200.249 37.8317 199.294 39.924C198.34 42.0163 197.846 44.2893 197.847 46.589V56.274H211.463C213.557 56.2734 215.623 55.7851 217.496 54.8478C219.369 53.9105 220.998 52.55 222.254 50.874C223.51 52.55 225.139 53.9105 227.012 54.8478C228.885 55.7851 230.951 56.2734 233.045 56.274H246.661V46.591C246.662 44.2913 246.168 42.0183 245.214 39.926C244.259 37.8337 242.866 35.9709 241.129 34.464C245.923 32.7281 250.067 29.5588 252.997 25.3863C255.927 21.2139 257.502 16.2406 257.508 11.142V0.00201416L239.598 0Z" fill="#E0E8FF"/>
</g>
<defs>
<clipPath id="clip0">
<rect width="604.13" height="482.142" fill="white" transform="translate(0 81)"/>
</clipPath>
<clipPath id="clip1">
<rect width="43.968" height="35.09" fill="white" transform="translate(32 384)"/>
</clipPath>
<clipPath id="clip2">
<rect width="107.352" height="85.675" fill="white" transform="translate(567 563)"/>
</clipPath>
<clipPath id="clip3">
<rect width="70.509" height="56.271" fill="white" transform="translate(187)"/>
</clipPath>
</defs>
</svg>
