<svg xmlns="http://www.w3.org/2000/svg" width="86.181" height="68.779" viewBox="0 0 86.181 68.779"><defs><style>.a{fill:#6f93f4;}</style></defs><path class="a" d="M278.917,373.826a24.526,24.526,0,0,0-21.2,12.215,24.526,24.526,0,0,0-21.2-12.215H214.628v13.616a30.354,30.354,0,0,0,20.02,28.505,19.615,19.615,0,0,0-6.761,14.822v11.835H244.53a16.489,16.489,0,0,0,13.189-6.594,16.489,16.489,0,0,0,13.189,6.594H287.55V430.77a19.614,19.614,0,0,0-6.761-14.822,30.354,30.354,0,0,0,20.02-28.505V373.826Z" transform="translate(-214.628 -373.826)"/></svg>