<svg xmlns="http://www.w3.org/2000/svg" width="56.072" height="44.75" viewBox="0 0 56.072 44.75"><defs><style>.a{fill:#e0e8ff;}</style></defs><path class="a" d="M256.456,373.826a15.957,15.957,0,0,0-13.792,7.948,15.957,15.957,0,0,0-13.792-7.948H214.628v8.859a19.749,19.749,0,0,0,13.026,18.547,12.762,12.762,0,0,0-4.4,9.644v7.7h10.828a10.728,10.728,0,0,0,8.581-4.29,10.728,10.728,0,0,0,8.581,4.29h10.828v-7.7a12.761,12.761,0,0,0-4.4-9.644A19.749,19.749,0,0,0,270.7,382.686v-8.859Z" transform="translate(-214.628 -373.826)"/></svg>