<svg xmlns="http://www.w3.org/2000/svg" width="480.436" height="383.425" viewBox="0 0 480.436 383.425"><defs><style>.a{fill:#e0e8ff;}</style></defs><path class="a" d="M573.02,373.826a136.726,136.726,0,0,0-118.174,68.1,136.725,136.725,0,0,0-118.174-68.1H214.628v75.908c0,73.034,46.589,135.385,111.606,158.91a109.349,109.349,0,0,0-37.692,82.629v65.978h92.78a91.92,91.92,0,0,0,73.525-36.761,91.921,91.921,0,0,0,73.526,36.761H621.15V691.273a109.343,109.343,0,0,0-37.692-82.629c65.017-23.525,111.606-85.876,111.606-158.91V373.826Z" transform="translate(-214.628 -373.826)"/></svg>