<svg width="60" height="48" viewBox="0 0 60 48" fill="none" xmlns="http://www.w3.org/2000/svg">
<path d="M44.495 0.169983C41.5242 0.17119 38.6057 0.95147 36.0307 2.43296C33.4557 3.91445 31.3142 6.04534 29.82 8.61298C28.3257 6.04519 26.1841 3.91421 23.6089 2.43271C21.0337 0.951212 18.1149 0.171015 15.144 0.169983L0 0.169983V9.58498C0.00258097 13.8968 1.33189 18.1035 3.80749 21.6339C6.28308 25.1642 9.78504 27.8474 13.838 29.319C12.3671 30.5916 11.187 32.1656 10.3776 33.9343C9.56826 35.703 9.14857 37.6249 9.147 39.57V47.745H20.706C22.474 47.7423 24.2173 47.3294 25.7986 46.5386C27.3799 45.7478 28.7562 44.6009 29.819 43.188C30.8818 44.6009 32.2581 45.7478 33.8394 46.5386C35.4207 47.3294 37.164 47.7423 38.932 47.745H50.459V39.57C50.4577 37.6246 50.0382 35.7022 49.2288 33.9332C48.4194 32.1642 47.2392 30.5899 45.768 29.317C49.8268 27.8509 53.3356 25.1704 55.8174 21.64C58.2992 18.1095 59.6335 13.9005 59.639 9.58498V0.169983H44.495ZM20.974 25.97C16.6313 25.961 12.469 24.2318 9.39833 21.1609C6.32765 18.0901 4.59872 13.9277 4.59 9.58498V4.75998H15.144C18.4263 4.75997 21.5747 6.06131 23.8991 8.37877C26.2235 10.6962 27.5342 13.8407 27.544 17.123V25.97H20.974ZM20.706 43.158H13.771V39.57C13.771 37.1796 14.7206 34.8871 16.4108 33.1968C18.1011 31.5066 20.3936 30.557 22.784 30.557H27.542V36.357C27.542 38.1697 26.8219 39.9082 25.5401 41.1901C24.2583 42.4719 22.5198 43.192 20.707 43.192L20.706 43.158ZM45.907 43.192H38.933C37.1204 43.1915 35.3823 42.471 34.1009 41.189C32.8195 39.907 32.0997 38.1686 32.1 36.356V30.556H36.858C39.2482 30.5565 41.5404 31.5065 43.2302 33.1969C44.9201 34.8873 45.8693 37.1798 45.869 39.57L45.907 43.192ZM55.049 9.58498C55.0403 13.9277 53.3113 18.0901 50.2407 21.1609C47.17 24.2318 43.0077 25.961 38.665 25.97H32.1V17.124C32.1095 13.8483 33.4148 10.7094 35.7308 8.39286C38.0468 6.0763 41.1853 4.77027 44.461 4.75998H55.015L55.049 9.58498Z" fill="#6D88C4"/>
</svg>
