<svg xmlns="http://www.w3.org/2000/svg" width="53.639" height="53.626" viewBox="0 0 53.639 53.626"><defs><style>.a{fill:#6f93f4;}</style></defs><g transform="translate(0 0)"><g transform="translate(0 0)"><path class="a" d="M49.567,18.087a14.913,14.913,0,0,0,.253-2.717,15.327,15.327,0,0,0-29.736-5.205A7.663,7.663,0,0,0,9.8,15.5,11.5,11.5,0,0,0,11.5,38.361h9.579a1.916,1.916,0,0,0,0-3.832H11.5a7.663,7.663,0,1,1,0-15.327,1.916,1.916,0,0,0,1.916-1.916,3.832,3.832,0,0,1,6.514-2.73A1.916,1.916,0,0,0,23.168,13.5a11.484,11.484,0,0,1,22.657,3.766q-.093.56-.241,1.108a1.916,1.916,0,0,0,.791,2.107,7.663,7.663,0,0,1-4.219,14.049H36.408a1.916,1.916,0,0,0,0,3.832h5.748a11.5,11.5,0,0,0,7.411-20.273Z" transform="translate(-0.001 -0.062)"/></g></g><g transform="translate(17.269 17.225)"><path class="a" d="M176.242,163.642l-9.579-9.579a1.894,1.894,0,0,0-.625-.416,1.922,1.922,0,0,0-2.088.416l-9.579,9.579a1.916,1.916,0,0,0,2.709,2.709l6.313-6.309v27.945a1.916,1.916,0,0,0,3.832,0V160.042l6.309,6.309a1.916,1.916,0,0,0,2.709-2.709Z" transform="translate(-153.832 -153.501)"/></g></svg>