<svg xmlns="http://www.w3.org/2000/svg" width="260" height="260" viewBox="0 0 260 260"><defs><style>.a{fill:#d65d5d;}.b{fill:#d9eafc;}.c{fill:#c3ddf4;}.d{fill:#02af8e;}.e{fill:#0f9390;}.f{fill:#1a2b63;}.g{fill:#52bbef;}.h{fill:#1e99d6;}.i{fill:#ffd00d;}.j{fill:#eef6ff;}.k{fill:#ffdd8d;}.l{fill:#ff9f60;}.m{fill:#fff;}.n{fill:#fe3745;}.o{fill:#37c47a;}.p{fill:#f87eab;}.q{fill:#ffe2b8;}.r{fill:#ffaf10;}.s{fill:#ff9518;}.t{fill:#293d7c;}</style></defs><g transform="translate(28.659 22.408)"><circle class="a" cx="130" cy="130" r="130" transform="translate(-28.659 -22.408)"/><path class="b" d="M61.914,261.33H182.8V134.345H61.914Z" transform="translate(-33.019 -65.445)"/><path class="c" d="M69.317,134.345h-7.4V261.33h7.4Z" transform="translate(-33.019 -65.445)"/><rect class="d" width="120.888" height="37.099" transform="translate(28.895 32.173)"/><rect class="e" width="7.403" height="37.099" transform="translate(28.895 32.173)"/><path class="f" d="M179.238,0H65.48a3.576,3.576,0,0,0-3.566,3.566v10.2H182.8V3.566A3.576,3.576,0,0,0,179.238,0Z" transform="translate(-33.019 18.779)"/><path class="g" d="M253.912,233.568a1.337,1.337,0,0,1-1.333,1.333H199.266a1.337,1.337,0,0,1-1.333-1.333v-35.72a1.337,1.337,0,0,1,1.333-1.333H252.58a1.336,1.336,0,0,1,1.333,1.333Z" transform="translate(-118.292 -104.421)"/><path class="h" d="M205.336,233.568v-35.72a1.337,1.337,0,0,1,1.333-1.333h-7.4a1.336,1.336,0,0,0-1.333,1.333v35.72a1.337,1.337,0,0,0,1.333,1.333h7.4A1.337,1.337,0,0,1,205.336,233.568Z" transform="translate(-118.292 -104.421)"/><path class="d" d="M241.128,239.49a1.088,1.088,0,0,0-1.718,0l-6.929,8.221a1.088,1.088,0,0,1-1.718,0l-13.08-15.517a1.088,1.088,0,0,0-1.718,0l-18.032,21.392v2.086a1.337,1.337,0,0,0,1.333,1.333h53.314a1.337,1.337,0,0,0,1.333-1.333v-1.015Z" transform="translate(-118.293 -126.525)"/><circle class="i" cx="3.999" cy="3.999" r="3.999" transform="translate(123.544 95.582)"/><g transform="translate(79.777 81.83)"><path class="h" d="M252.276,320.06H201.1a2.8,2.8,0,1,1,0-5.6h51.182a2.8,2.8,0,1,1,0,5.6Z" transform="translate(-198.297 -260.195)"/><path class="h" d="M252.276,345.694H201.1a2.8,2.8,0,1,1,0-5.6h51.182a2.8,2.8,0,1,1,0,5.6Z" transform="translate(-198.297 -276.265)"/><path class="h" d="M252.276,371.328H201.1a2.8,2.8,0,1,1,0-5.6h51.182a2.8,2.8,0,1,1,0,5.6Z" transform="translate(-198.297 -292.336)"/><path class="h" d="M252.276,396.963H201.1a2.8,2.8,0,1,1,0-5.6h51.182a2.8,2.8,0,1,1,0,5.6Z" transform="translate(-198.297 -308.407)"/><path class="h" d="M226.788,422.6H201.1a2.8,2.8,0,1,1,0-5.6h25.693a2.8,2.8,0,1,1,0,5.6Z" transform="translate(-198.297 -324.478)"/><path class="h" d="M226.788,174.6H201.1a2.8,2.8,0,0,1,0-5.6h25.693a2.8,2.8,0,0,1,0,5.6Z" transform="translate(-198.297 -169.001)"/></g><g transform="translate(42.25 133.248)"><path class="j" d="M97.709,376.728a1.871,1.871,0,0,1,1.865-1.865h24.8a1.871,1.871,0,0,1,1.865,1.865v17.462a1.871,1.871,0,0,1-1.865,1.865h-24.8a1.871,1.871,0,0,1-1.865-1.865Z" transform="translate(-97.709 -349.479)"/><path class="j" d="M97.709,308.689a1.871,1.871,0,0,1,1.865-1.865h24.8a1.871,1.871,0,0,1,1.865,1.865v17.462a1.871,1.871,0,0,1-1.865,1.865h-24.8a1.871,1.871,0,0,1-1.865-1.865Z" transform="translate(-97.709 -306.824)"/></g><g transform="translate(42.25 82.481)"><path class="k" d="M97.709,240.65a1.871,1.871,0,0,1,1.865-1.865h24.8a1.871,1.871,0,0,1,1.865,1.865v17.462a1.871,1.871,0,0,1-1.865,1.865h-24.8a1.871,1.871,0,0,1-1.865-1.865Z" transform="translate(-97.709 -213.401)"/><path class="k" d="M97.709,172.611a1.871,1.871,0,0,1,1.865-1.865h24.8a1.871,1.871,0,0,1,1.865,1.865v17.462a1.871,1.871,0,0,1-1.865,1.865h-24.8a1.871,1.871,0,0,1-1.865-1.865Z" transform="translate(-97.709 -170.746)"/></g><g transform="translate(42.25 133.248)"><path class="c" d="M105.112,394.191V376.728a1.871,1.871,0,0,1,1.865-1.865h-7.4a1.871,1.871,0,0,0-1.865,1.865v17.462a1.871,1.871,0,0,0,1.865,1.865h7.4A1.871,1.871,0,0,1,105.112,394.191Z" transform="translate(-97.709 -349.479)"/><path class="c" d="M105.112,326.152V308.689a1.871,1.871,0,0,1,1.865-1.865h-7.4a1.871,1.871,0,0,0-1.865,1.865v17.462a1.871,1.871,0,0,0,1.865,1.865h7.4A1.871,1.871,0,0,1,105.112,326.152Z" transform="translate(-97.709 -306.824)"/></g><g transform="translate(42.25 82.481)"><path class="l" d="M105.112,258.113V240.65a1.871,1.871,0,0,1,1.865-1.865h-7.4a1.871,1.871,0,0,0-1.865,1.865v17.462a1.871,1.871,0,0,0,1.865,1.865h7.4A1.871,1.871,0,0,1,105.112,258.113Z" transform="translate(-97.709 -213.401)"/><path class="l" d="M105.112,190.074V172.611a1.871,1.871,0,0,1,1.865-1.865h-7.4a1.871,1.871,0,0,0-1.865,1.865v17.462a1.871,1.871,0,0,0,1.865,1.865h7.4A1.871,1.871,0,0,1,105.112,190.074Z" transform="translate(-97.709 -170.746)"/></g><g transform="translate(54.817 42.039)"><path class="m" d="M197.643,96.172H134.194a2.8,2.8,0,0,1,0-5.6h63.449a2.8,2.8,0,1,1,0,5.6Z" transform="translate(-131.396 -80.044)"/><path class="m" d="M208.5,67.941H176.971a2.8,2.8,0,1,1,0-5.6H208.5a2.8,2.8,0,1,1,0,5.6Z" transform="translate(-158.214 -62.345)"/></g><path class="n" d="M80,16.442a2.888,2.888,0,1,1,2.041-.844A2.921,2.921,0,0,1,80,16.442Z" transform="translate(-42.544 12.094)"/><path class="i" d="M105.387,16.442a2.887,2.887,0,1,1,2.045-.848A2.9,2.9,0,0,1,105.387,16.442Z" transform="translate(-58.462 12.093)"/><path class="o" d="M130.791,16.442a2.887,2.887,0,1,1,2.041-.844A2.906,2.906,0,0,1,130.791,16.442Z" transform="translate(-74.388 12.094)"/><path class="p" d="M404.248,374.173a7.722,7.722,0,0,0,7.7,7.7h.77a7.722,7.722,0,0,0,7.7-7.7v-5H404.248Z" transform="translate(-247.636 -212.661)"/><path class="q" d="M419.577,27.544l-6.4-13.187c-.462-.952-1.219-.952-1.681,0l-6.4,13.187a9.981,9.981,0,0,0-.841,3.657v3.627h16.169V31.2A9.972,9.972,0,0,0,419.577,27.544Z" transform="translate(-247.636 10.226)"/><rect class="r" width="16.169" height="112.226" transform="translate(156.613 44.671)"/><rect class="s" width="7.403" height="112.226" transform="translate(156.613 44.671)"/><path class="t" d="M417.643,14.357l-3.583,7.379h8.848l-3.583-7.379C418.863,13.4,418.106,13.4,417.643,14.357Z" transform="translate(-253.787 10.226)"/></g></svg>