<svg xmlns="http://www.w3.org/2000/svg" width="256.002" height="256.002" viewBox="0 0 256.002 256.002"><defs><style>.a{fill:#b9b9ff;}.b{fill:#445ea0;}.c{fill:#2e4c89;}.d{fill:#293d7c;}.e{fill:#1a2b63;}.f{fill:#eef6ff;}.g{fill:#ffaf10;}.h{fill:#ff9518;}.i{fill:#c3ddf4;}.j{fill:#ef8318;}.k{fill:#69cdff;}.l{fill:#5dc1d8;}.m{fill:#28a5a5;}.n{fill:#52bbef;}.o{fill:#1e99d6;}</style></defs><g transform="translate(33.999 36.24)"><path class="a" d="M128,0A128,128,0,1,1,0,128,128,128,0,0,1,128,0Z" transform="translate(-33.999 -36.24)"/><rect class="b" width="34.674" height="14.823" transform="translate(67.877 131.703)"/><rect class="c" width="6.37" height="14.823" transform="translate(67.877 131.703)"/><path class="d" d="M191.233,433.026a1.61,1.61,0,0,1-1.605,1.605H125.736a1.61,1.61,0,0,1-1.605-1.605v-6.421A1.61,1.61,0,0,1,125.736,425h63.891a1.61,1.61,0,0,1,1.605,1.605Z" transform="translate(-72.467 -278.795)"/><path class="e" d="M130.5,433.026v-6.421A1.61,1.61,0,0,1,132.107,425h-6.37a1.61,1.61,0,0,0-1.605,1.605v6.421a1.61,1.61,0,0,0,1.605,1.605h6.37A1.61,1.61,0,0,1,130.5,433.026Z" transform="translate(-72.467 -278.795)"/><path class="d" d="M0,332.168a3.22,3.22,0,0,0,3.211,3.211H99.583v-21.5H0Z" transform="translate(11.811 -203.353)"/><path class="e" d="M6.37,332.168V313.883H0v18.285a3.22,3.22,0,0,0,3.211,3.211h6.37A3.22,3.22,0,0,1,6.37,332.168Z" transform="translate(11.811 -203.353)"/><path class="b" d="M99.583,129.8a1.286,1.286,0,0,1,1.284-1.284h45.94V59a3.539,3.539,0,0,0-3.529-3.529H3.529A3.539,3.539,0,0,0,0,59v79.756H99.583Z" transform="translate(11.811 -27.907)"/><path class="f" d="M114.509,144.728a1.285,1.285,0,0,1,1.284-1.284h38.882V79.062a1.61,1.61,0,0,0-1.605-1.605H23.589a1.61,1.61,0,0,0-1.605,1.605V145.02a1.61,1.61,0,0,0,1.605,1.605h90.92v-1.9Z" transform="translate(-3.115 -42.833)"/><circle class="b" cx="4.466" cy="4.466" r="4.466" transform="translate(80.748 117.085)"/><path class="g" d="M301.988,153.61a1.61,1.61,0,0,1-1.605,1.605H249.509a1.61,1.61,0,0,1-1.605-1.605V130.263a1.61,1.61,0,0,1,1.605-1.605h50.873a1.61,1.61,0,0,1,1.605,1.605V153.61Z" transform="translate(-156.502 -77.596)"/><path class="h" d="M254.275,153.61V130.263a1.61,1.61,0,0,1,1.605-1.605h-6.37a1.61,1.61,0,0,0-1.605,1.605V153.61a1.61,1.61,0,0,0,1.605,1.605h6.37A1.61,1.61,0,0,1,254.275,153.61Z" transform="translate(-156.502 -77.596)"/><g transform="translate(91.643 82.032)"><path class="i" d="M264.9,229.937H251.062a2.408,2.408,0,1,1,0-4.816H264.9a2.408,2.408,0,1,1,0,4.816Z" transform="translate(-248.654 -225.121)"/><path class="i" d="M264.9,252.732H251.062a2.408,2.408,0,0,1,0-4.816H264.9a2.408,2.408,0,1,1,0,4.816Z" transform="translate(-248.654 -240.598)"/><path class="i" d="M324.421,229.937H314.128a2.408,2.408,0,0,1,0-4.816h10.293a2.408,2.408,0,1,1,0,4.816Z" transform="translate(-291.472 -225.121)"/><path class="i" d="M324.421,252.732H314.128a2.408,2.408,0,0,1,0-4.816h10.293a2.408,2.408,0,0,1,0,4.816Z" transform="translate(-291.472 -240.598)"/><path class="i" d="M378.955,229.937H365.844a2.408,2.408,0,1,1,0-4.816h13.111a2.408,2.408,0,1,1,0,4.816Z" transform="translate(-326.585 -225.121)"/><path class="i" d="M378.955,252.732H365.844a2.408,2.408,0,1,1,0-4.816h13.111a2.408,2.408,0,0,1,0,4.816Z" transform="translate(-326.585 -240.598)"/></g><g transform="translate(120.446 40.284)"><path class="j" d="M345.108,100.222a1.61,1.61,0,0,1-1.605,1.605h-3.531a1.61,1.61,0,0,1-1.605-1.605V96.69a1.61,1.61,0,0,1,1.605-1.605H343.5a1.61,1.61,0,0,1,1.605,1.605Z" transform="translate(-338.366 -95.085)"/><path class="j" d="M373.106,100.222a1.61,1.61,0,0,1-1.605,1.605h-3.531a1.61,1.61,0,0,1-1.605-1.605V96.69a1.61,1.61,0,0,1,1.605-1.605H371.5a1.61,1.61,0,0,1,1.605,1.605Z" transform="translate(-357.375 -95.085)"/><path class="j" d="M401.1,100.222a1.61,1.61,0,0,1-1.605,1.605h-3.531a1.61,1.61,0,0,1-1.605-1.605V96.69a1.61,1.61,0,0,1,1.605-1.605H399.5A1.61,1.61,0,0,1,401.1,96.69Z" transform="translate(-376.384 -95.085)"/></g><g transform="translate(25.503 43.789)"><path class="k" d="M179.7,246.821h-2.89a2.408,2.408,0,0,1,0-4.816h2.89a2.408,2.408,0,0,1,0,4.816Z" transform="translate(-132.099 -198.341)"/><path class="k" d="M145.7,246.821h-2.889a2.408,2.408,0,1,1,0-4.816H145.7a2.408,2.408,0,0,1,0,4.816Z" transform="translate(-109.014 -198.341)"/><path class="k" d="M111.694,246.821H108.8a2.408,2.408,0,1,1,0-4.816h2.89a2.408,2.408,0,1,1,0,4.816Z" transform="translate(-85.93 -198.341)"/><path class="k" d="M77.694,246.821H74.8a2.408,2.408,0,1,1,0-4.816h2.889a2.408,2.408,0,1,1,0,4.816Z" transform="translate(-62.846 -198.341)"/><path class="k" d="M215.056,209.811a2.408,2.408,0,0,1-2.408-2.408v-2.89a2.408,2.408,0,1,1,4.816,0v2.89A2.408,2.408,0,0,1,215.056,209.811Z" transform="translate(-158.068 -171.252)"/><path class="k" d="M215.056,175.811a2.408,2.408,0,0,1-2.408-2.408v-2.89a2.408,2.408,0,1,1,4.816,0v2.89A2.408,2.408,0,0,1,215.056,175.811Z" transform="translate(-158.068 -148.168)"/><path class="k" d="M215.056,141.811a2.408,2.408,0,0,1-2.408-2.408v-2.889a2.408,2.408,0,0,1,4.816,0V139.4A2.408,2.408,0,0,1,215.056,141.811Z" transform="translate(-158.068 -125.084)"/><path class="k" d="M45.055,209.811a2.408,2.408,0,0,1-2.408-2.408v-2.89a2.408,2.408,0,0,1,4.816,0v2.89A2.408,2.408,0,0,1,45.055,209.811Z" transform="translate(-42.647 -171.252)"/><path class="k" d="M45.055,175.811a2.408,2.408,0,0,1-2.408-2.408v-2.89a2.408,2.408,0,0,1,4.816,0v2.89A2.408,2.408,0,0,1,45.055,175.811Z" transform="translate(-42.647 -148.168)"/><path class="k" d="M45.055,141.811a2.408,2.408,0,0,1-2.408-2.408v-2.889a2.408,2.408,0,0,1,4.816,0V139.4A2.408,2.408,0,0,1,45.055,141.811Z" transform="translate(-42.647 -125.084)"/><path class="k" d="M179.7,110.821h-2.89a2.408,2.408,0,0,1,0-4.816h2.89a2.408,2.408,0,0,1,0,4.816Z" transform="translate(-132.099 -106.005)"/><path class="k" d="M145.7,110.821h-2.889a2.408,2.408,0,1,1,0-4.816H145.7a2.408,2.408,0,0,1,0,4.816Z" transform="translate(-109.014 -106.005)"/><path class="k" d="M111.694,110.821H108.8a2.408,2.408,0,1,1,0-4.816h2.89a2.408,2.408,0,1,1,0,4.816Z" transform="translate(-85.93 -106.005)"/><path class="k" d="M77.694,110.821H74.8a2.408,2.408,0,1,1,0-4.816h2.889a2.408,2.408,0,1,1,0,4.816Z" transform="translate(-62.846 -106.005)"/></g><path class="l" d="M111.885,162.721a1.61,1.61,0,0,1-1.605,1.605H71.753a1.61,1.61,0,0,1-1.605-1.605V135.11a1.61,1.61,0,0,1,1.605-1.605H110.28a1.61,1.61,0,0,1,1.605,1.605Z" transform="translate(-35.815 -80.886)"/><path class="m" d="M76.518,162.721V135.11a1.61,1.61,0,0,1,1.605-1.605H71.752a1.61,1.61,0,0,0-1.605,1.605v27.611a1.61,1.61,0,0,0,1.605,1.605h6.371A1.61,1.61,0,0,1,76.518,162.721Z" transform="translate(-35.815 -80.886)"/><g transform="translate(23.737 40.259)"><path class="n" d="M213.1,103.356a1.61,1.61,0,0,1-1.605,1.605H204.75a1.61,1.61,0,0,1-1.605-1.605V96.614a1.61,1.61,0,0,1,1.605-1.605h6.742a1.61,1.61,0,0,1,1.605,1.605Z" transform="translate(-149.85 -95.009)"/><path class="n" d="M47.1,105.356a1.61,1.61,0,0,1-1.605,1.605H38.75a1.61,1.61,0,0,1-1.605-1.605V98.614a1.61,1.61,0,0,1,1.605-1.605h6.742A1.61,1.61,0,0,1,47.1,98.614Z" transform="translate(-37.145 -96.367)"/><path class="n" d="M213.1,243.23a1.61,1.61,0,0,1-1.605,1.605H204.75a1.61,1.61,0,0,1-1.605-1.605v-6.742a1.61,1.61,0,0,1,1.605-1.605h6.742a1.61,1.61,0,0,1,1.605,1.605Z" transform="translate(-149.85 -189.976)"/><path class="n" d="M47.1,243.23a1.61,1.61,0,0,1-1.605,1.605H38.75a1.61,1.61,0,0,1-1.605-1.605v-6.742a1.61,1.61,0,0,1,1.605-1.605h6.742a1.61,1.61,0,0,1,1.605,1.605Z" transform="translate(-37.145 -189.976)"/></g><g transform="translate(23.737 40.259)"><path class="o" d="M206.684,103.356V96.614a1.61,1.61,0,0,1,1.605-1.605H204.75a1.61,1.61,0,0,0-1.605,1.605v6.742a1.61,1.61,0,0,0,1.605,1.605h3.539A1.61,1.61,0,0,1,206.684,103.356Z" transform="translate(-149.85 -95.009)"/><path class="o" d="M40.684,105.356V98.614a1.61,1.61,0,0,1,1.605-1.605H38.75a1.61,1.61,0,0,0-1.605,1.605v6.742a1.61,1.61,0,0,0,1.605,1.605h3.539A1.61,1.61,0,0,1,40.684,105.356Z" transform="translate(-37.145 -96.367)"/><path class="o" d="M206.684,243.23v-6.742a1.61,1.61,0,0,1,1.605-1.605H204.75a1.61,1.61,0,0,0-1.605,1.605v6.742a1.61,1.61,0,0,0,1.605,1.605h3.539A1.61,1.61,0,0,1,206.684,243.23Z" transform="translate(-149.85 -189.976)"/><path class="o" d="M40.684,243.23v-6.742a1.61,1.61,0,0,1,1.605-1.605H38.75a1.61,1.61,0,0,0-1.605,1.605v6.742a1.61,1.61,0,0,0,1.605,1.605h3.539A1.61,1.61,0,0,1,40.684,243.23Z" transform="translate(-37.145 -189.976)"/></g><path class="l" d="M349.718,309.209a.446.446,0,0,1-.039-.238l.038,0a.583.583,0,0,1,.2.043l13.518,4.965V283.593a1.61,1.61,0,0,0-1.605-1.605H310.779a1.61,1.61,0,0,0-1.605,1.605v36.857a1.61,1.61,0,0,0,1.605,1.605h43.657Z" transform="translate(-198.101 -181.698)"/><path class="m" d="M315.545,320.45V283.592a1.61,1.61,0,0,1,1.605-1.605h-6.37a1.61,1.61,0,0,0-1.605,1.605V320.45a1.61,1.61,0,0,0,1.605,1.605h6.37A1.61,1.61,0,0,1,315.545,320.45Z" transform="translate(-198.101 -181.698)"/><path class="d" d="M435,365.09c-.529-.194-.8.08-.609.609l8.465,23.046a.606.606,0,0,0,1.078.237l4.494-4.494a1.029,1.029,0,0,1,1.449,0l5.178,5.179a1.028,1.028,0,0,0,1.449,0l2.464-2.464a1.028,1.028,0,0,0,0-1.449l-5.178-5.178a1.028,1.028,0,0,1,0-1.449l4.494-4.494a.605.605,0,0,0-.237-1.078Z" transform="translate(-283.071 -238.077)"/></g></svg>