<svg xmlns="http://www.w3.org/2000/svg" width="257" height="259" viewBox="0 0 257 259"><defs><style>.a{fill:#ffbc6e;}.b{fill:#445ea0;}.c{fill:#293d7c;}.d{fill:#1a2b63;}.e{fill:#c3ddf4;}.f{fill:#aec1ed;}.g{fill:#fff;}.h{fill:#d9eafc;}.i{fill:#0f9390;}.j{fill:#52bbef;}.k{fill:#85a0dd;}.l{fill:#91e0e8;}.m{fill:#5dc1d8;}.n{fill:#eef6ff;}</style></defs><g transform="translate(21.347 16.984)"><ellipse class="a" cx="128.5" cy="129.5" rx="128.5" ry="129.5" transform="translate(-21.347 -16.984)"/><rect class="b" width="38.007" height="16.349" transform="translate(68.837 162.318)"/><path class="c" d="M191.939,436.634a2.02,2.02,0,0,1-2.014,2.014H120.4a2.02,2.02,0,0,1-2.014-2.014v-6.529a2.02,2.02,0,0,1,2.014-2.014h69.525a2.02,2.02,0,0,1,2.014,2.014v6.529Z" transform="translate(-67.324 -249.824)"/><path class="d" d="M126.379,436.634v-6.529a2.02,2.02,0,0,1,2.014-2.014H120.4a2.02,2.02,0,0,0-2.014,2.014v6.529a2.02,2.02,0,0,0,2.014,2.014h7.993A2.02,2.02,0,0,1,126.379,436.634Z" transform="translate(-67.324 -249.824)"/><path class="c" d="M147.3,330.888H9.94v19.584a4.04,4.04,0,0,0,4.028,4.028H147.3V330.888Z" transform="translate(-2.562 -191.777)"/><path class="d" d="M17.933,350.472V330.888H9.94v19.584a4.04,4.04,0,0,0,4.028,4.028h7.993A4.04,4.04,0,0,1,17.933,350.472Z" transform="translate(-2.562 -191.777)"/><path class="b" d="M166.995,105.259h-16.1V149.27a3.807,3.807,0,0,0-3.782,3.808v35.736H29.061V105.259H13.808a3.879,3.879,0,0,0-3.868,3.868v87.424H147.3V153.078a3.813,3.813,0,0,1,3.809-3.809h19.755V109.127A3.878,3.878,0,0,0,166.995,105.259Z" transform="translate(-2.562 -57.038)"/><g transform="translate(15.115 55.958)"><path class="c" d="M40.531,124.464h-9.37a2.02,2.02,0,0,0-2.014,2.014v71.79a2.02,2.02,0,0,0,2.014,2.014h9.37V124.464Z" transform="translate(-29.147 -124.464)"/><path class="c" d="M370.068,124.464H359.847v36.285c.072,0,.143-.011.216-.011h12.019v-34.26A2.02,2.02,0,0,0,370.068,124.464Z" transform="translate(-226.632 -124.464)"/></g><path class="d" d="M37.14,198.269v-71.79a2.02,2.02,0,0,1,2.014-2.014H31.161a2.02,2.02,0,0,0-2.014,2.014v71.79a2.02,2.02,0,0,0,2.014,2.014h7.993A2.02,2.02,0,0,1,37.14,198.269Z" transform="translate(-14.032 -68.506)"/><circle class="b" cx="4.896" cy="4.896" r="4.896" transform="translate(82.942 146.349)"/><path class="e" d="M101.335,26.39a1.8,1.8,0,0,1,1.794-1.793h46.247V2.121A2.127,2.127,0,0,0,147.255,0H59.028a2.127,2.127,0,0,0-2.121,2.121V125.956h44.428Z" transform="translate(-30.61 5.82)"/><path class="f" d="M67.021,0H59.028a2.127,2.127,0,0,0-2.121,2.121V125.956H64.9V2.121A2.127,2.127,0,0,1,67.021,0Z" transform="translate(-30.61 5.82)"/><path class="g" d="M240.611,126.088a3.813,3.813,0,0,1,3.795-3.808V61.855a1.8,1.8,0,0,0-1.793-1.793H167.991a1.8,1.8,0,0,0-1.794,1.793v99.969h74.414V126.088Z" transform="translate(-95.875 -30.047)"/><path class="h" d="M175.984,60.062h-7.993a1.8,1.8,0,0,0-1.794,1.793v99.969h7.993V61.855A1.8,1.8,0,0,1,175.984,60.062Z" transform="translate(-95.875 -30.047)"/><path class="i" d="M197.173,140.737a3.021,3.021,0,0,1-2.273-1.031l-4.834-5.522a3.021,3.021,0,0,1,4.546-3.98l2.56,2.925,4.071-4.651a3.021,3.021,0,0,1,4.546,3.98l-6.344,7.247A3.021,3.021,0,0,1,197.173,140.737Z" transform="translate(-109.682 -70.288)"/><g transform="translate(100.817 56.814)"><path class="j" d="M277.279,132.633H244.921a3.021,3.021,0,1,1,0-6.042h32.358a3.021,3.021,0,1,1,0,6.042Z" transform="translate(-241.9 -126.591)"/><path class="j" d="M277.279,153.2H244.921a3.021,3.021,0,1,1,0-6.042h32.358a3.021,3.021,0,1,1,0,6.042Z" transform="translate(-241.9 -138.87)"/></g><path class="i" d="M197.173,202.423a3.022,3.022,0,0,1-2.273-1.031l-4.834-5.521a3.021,3.021,0,0,1,4.546-3.98l2.56,2.925,4.071-4.651a3.021,3.021,0,0,1,4.546,3.98l-6.344,7.247A3.021,3.021,0,0,1,197.173,202.423Z" transform="translate(-109.682 -107.126)"/><g transform="translate(100.817 81.663)"><path class="j" d="M277.279,194.318H244.921a3.021,3.021,0,1,1,0-6.042h32.358a3.021,3.021,0,1,1,0,6.042Z" transform="translate(-241.9 -188.276)"/><path class="j" d="M277.279,214.881H244.921a3.021,3.021,0,1,1,0-6.042h32.358a3.021,3.021,0,1,1,0,6.042Z" transform="translate(-241.9 -200.556)"/></g><path class="i" d="M197.173,264.109h0a3.022,3.022,0,0,1-2.273-1.031l-4.834-5.522a3.021,3.021,0,1,1,4.546-3.98l2.56,2.925,4.071-4.65a3.021,3.021,0,0,1,4.546,3.98l-6.344,7.247A3.021,3.021,0,0,1,197.173,264.109Z" transform="translate(-109.682 -143.962)"/><g transform="translate(100.817 106.511)"><path class="j" d="M277.279,256H244.921a3.021,3.021,0,1,1,0-6.042h32.358a3.021,3.021,0,1,1,0,6.042Z" transform="translate(-241.9 -249.962)"/><path class="j" d="M265.384,276.566H244.92a3.021,3.021,0,1,1,0-6.042h20.464a3.021,3.021,0,1,1,0,6.042Z" transform="translate(-241.899 -262.241)"/></g><g transform="translate(35.004 31.142)"><path class="b" d="M105.117,68.9H81.543a3.021,3.021,0,0,1,0-6.042h23.574a3.021,3.021,0,1,1,0,6.042Z" transform="translate(-78.522 -62.86)"/><path class="b" d="M105.117,89.745H81.543a3.021,3.021,0,0,1,0-6.042h23.574a3.021,3.021,0,1,1,0,6.042Z" transform="translate(-78.522 -75.307)"/><path class="b" d="M105.117,110.588H81.543a3.021,3.021,0,0,1,0-6.042h23.574a3.021,3.021,0,1,1,0,6.042Z" transform="translate(-78.522 -87.754)"/><path class="b" d="M105.117,150.08H81.543a3.021,3.021,0,1,1,0-6.042h23.574a3.021,3.021,0,1,1,0,6.042Z" transform="translate(-78.522 -111.337)"/><path class="b" d="M105.117,170.924H81.543a3.021,3.021,0,1,1,0-6.042h23.574a3.021,3.021,0,1,1,0,6.042Z" transform="translate(-78.522 -123.785)"/><path class="b" d="M105.117,191.768H81.543a3.021,3.021,0,1,1,0-6.042h23.574a3.021,3.021,0,1,1,0,6.042Z" transform="translate(-78.522 -136.232)"/><path class="b" d="M105.117,231.26H81.543a3.021,3.021,0,1,1,0-6.042h23.574a3.021,3.021,0,1,1,0,6.042Z" transform="translate(-78.522 -159.816)"/><path class="b" d="M105.117,252.1H81.543a3.021,3.021,0,1,1,0-6.042h23.574a3.021,3.021,0,1,1,0,6.042Z" transform="translate(-78.522 -172.262)"/><path class="b" d="M105.117,272.945H81.543a3.021,3.021,0,0,1,0-6.042h23.574a3.021,3.021,0,1,1,0,6.042Z" transform="translate(-78.522 -184.709)"/><path class="b" d="M250.936,88.541h-32.57a3.021,3.021,0,1,1,0-6.042h32.57a3.021,3.021,0,0,1,0,6.042Z" transform="translate(-160.229 -74.588)"/></g><path class="f" d="M400.256,306.3a4.224,4.224,0,0,1-4.212,4.212H354.139a4.224,4.224,0,0,1-4.212-4.212V217.724a4.224,4.224,0,0,1,4.212-4.212h41.906a4.224,4.224,0,0,1,4.212,4.212V306.3Z" transform="translate(-205.594 -121.684)"/><path class="k" d="M357.92,306.3V217.724a4.224,4.224,0,0,1,4.212-4.212h-7.993a4.224,4.224,0,0,0-4.212,4.212V306.3a4.224,4.224,0,0,0,4.212,4.212h7.993A4.224,4.224,0,0,1,357.92,306.3Z" transform="translate(-205.594 -121.684)"/><path class="b" d="M391.485,413.15V417.9a2.02,2.02,0,0,0,2.014,2.014h12.82a2.02,2.02,0,0,0,2.014-2.014V413.15Z" transform="translate(-230.411 -240.902)"/><rect class="l" width="50.329" height="67.175" transform="translate(144.334 105.475)"/><rect class="m" width="7.993" height="67.175" transform="translate(144.334 105.475)"/><path class="b" d="M404.464,228.771H390.143a3.021,3.021,0,0,1,0-6.042h14.321a3.021,3.021,0,0,1,0,6.042Z" transform="translate(-227.806 -127.188)"/><g transform="translate(150.788 111.621)"><path class="n" d="M403.437,278.741a2.02,2.02,0,0,1-2.014,2.014H367.965a2.02,2.02,0,0,1-2.014-2.014V264.659a2.02,2.02,0,0,1,2.014-2.014h33.458a2.02,2.02,0,0,1,2.014,2.014v14.082Z" transform="translate(-365.951 -262.645)"/><path class="n" d="M393.8,323.378H369.147a3.021,3.021,0,0,1,0-6.042H393.8a3.021,3.021,0,1,1,0,6.042Z" transform="translate(-366.056 -295.305)"/><path class="n" d="M393.8,345.493H369.147a3.021,3.021,0,0,1,0-6.042H393.8a3.021,3.021,0,1,1,0,6.042Z" transform="translate(-366.056 -308.512)"/><path class="n" d="M393.8,367.607H369.147a3.021,3.021,0,0,1,0-6.042H393.8a3.021,3.021,0,0,1,0,6.042Z" transform="translate(-366.056 -321.717)"/></g><g transform="translate(150.788 111.621)"><path class="h" d="M373.945,278.741V264.659a2.02,2.02,0,0,1,2.014-2.014h-7.993a2.02,2.02,0,0,0-2.014,2.014v14.082a2.02,2.02,0,0,0,2.014,2.014h7.993A2.02,2.02,0,0,1,373.945,278.741Z" transform="translate(-365.952 -262.645)"/><path class="h" d="M374.119,320.357a3.021,3.021,0,0,1,3.021-3.021h-7.993a3.021,3.021,0,1,0,0,6.042h7.993A3.021,3.021,0,0,1,374.119,320.357Z" transform="translate(-366.056 -295.305)"/><path class="h" d="M374.119,342.472a3.021,3.021,0,0,1,3.021-3.021h-7.993a3.021,3.021,0,1,0,0,6.042h7.993A3.021,3.021,0,0,1,374.119,342.472Z" transform="translate(-366.056 -308.512)"/><path class="h" d="M374.119,364.586a3.021,3.021,0,0,1,3.021-3.021h-7.993a3.021,3.021,0,1,0,0,6.042h7.993A3.021,3.021,0,0,1,374.119,364.586Z" transform="translate(-366.056 -321.717)"/></g><path class="g" d="M155,29.654a2.02,2.02,0,0,1-2.014,2.014H80.074a2.02,2.02,0,0,1-2.014-2.014v-5.64A2.02,2.02,0,0,1,80.074,22h72.912A2.02,2.02,0,0,1,155,24.014Z" transform="translate(-43.242 -7.318)"/></g></svg>