<svg xmlns="http://www.w3.org/2000/svg" width="32.003" height="32.002" viewBox="0 0 32.003 32.002"><defs><style>.a{opacity:0.497;}.b{fill:#01164e;}</style></defs><g class="a"><path class="b" d="M29.377,11.251H20.586c.028-.308.043-.621.043-.936A10.317,10.317,0,0,0,5.161,1.378.625.625,0,1,0,5.786,2.46a9.065,9.065,0,1,1,4.528,16.919,8.963,8.963,0,0,1-5.684-2,.626.626,0,0,0-.576-.11L2.4,17.7l.65-1.428a.625.625,0,0,0-.063-.627,9.069,9.069,0,0,1-.515-9.868.625.625,0,0,0-1.082-.627A10.321,10.321,0,0,0,1.76,16.077l-1.046,2.3a.625.625,0,0,0,.727.864L4.1,18.545a10.312,10.312,0,0,0,7.653,1.983V26a2.628,2.628,0,0,0,2.625,2.625h8.84l3.953,3.234a.625.625,0,0,0,1.021-.484v-2.75h1.188A2.628,2.628,0,0,0,32,26V13.876A2.628,2.628,0,0,0,29.377,11.251ZM30.752,26a1.377,1.377,0,0,1-1.375,1.375H27.565A.625.625,0,0,0,26.94,28v2.056l-3.087-2.526c-.17-.155-.319-.155-.654-.155H14.376A1.377,1.377,0,0,1,13,26V20.274A10.349,10.349,0,0,0,20.4,12.5h8.982a1.377,1.377,0,0,1,1.375,1.375Zm0,0"/><path class="b" d="M294.409,256.24a.625.625,0,0,0-.266-1.19h-.256l-2.016-4.594a.625.625,0,0,0-1.145,0l-2.016,4.594h-.256a.625.625,0,0,0-.266,1.19l-.751,1.711a.625.625,0,1,0,1.145.5l.945-2.153h3.543l.945,2.153a.625.625,0,1,0,1.145-.5Zm-4.333-1.19,1.223-2.787,1.223,2.787Zm0,0" transform="translate(-269.422 -234.451)"/><path class="b" d="M46.027,46.649a.625.625,0,1,0-.442-.183A.63.63,0,0,0,46.027,46.649Zm0,0" transform="translate(-42.564 -42.561)"/><path class="b" d="M100.458,94.176a.625.625,0,1,0,.6,1.1,7.158,7.158,0,0,0,3.094-3.356,7.159,7.159,0,0,0,3.094,3.356.625.625,0,0,0,.6-1.1,5.911,5.911,0,0,1-3-4.3h2.775a.625.625,0,1,0,0-1.25h-2.842v-2.6a.625.625,0,1,0-1.25,0v2.6h-2.258a.625.625,0,1,0,0,1.25h2.191A5.911,5.911,0,0,1,100.458,94.176Zm0,0" transform="translate(-93.874 -80.057)"/></g></svg>