<svg xmlns="http://www.w3.org/2000/svg" width="100.422" height="100.422" viewBox="0 0 100.422 100.422"><defs><style>.a{fill:#6f93f4;}.b{fill:#fff;}.c{fill:#e0e8ff;}</style></defs><g transform="translate(0 0)"><path class="a" d="M322.41,19,283.538,75.115l-4.052,5.849v19.641L294.257,86.17l-7.544-14.082" transform="translate(-224.668 -15.274)"/><path class="a" d="M92.539,69.531,64,60.8,149.908,10V87.082L106.954,73.941" transform="translate(-51.447 -8.039)"/><path class="a" d="M226.324,100.606,213.353,77l55.9-58L227.53,79.224Z" transform="translate(-171.506 -15.274)"/><path class="b" d="M142.841.257a1.961,1.961,0,0,0-1.97.015L104.928,21.527a1.961,1.961,0,1,0,2,3.376L132.713,9.654,84.678,59.495,60.787,52.186,91.965,33.749a1.961,1.961,0,0,0-2-3.377l-35.006,20.7a1.961,1.961,0,0,0,.424,3.564l28.532,8.729L96.506,86.276a.465.465,0,0,0,.041.062,1.956,1.956,0,0,0,3.049.4L114.07,72.589,141.3,80.918a1.961,1.961,0,0,0,2.535-1.875V1.961A1.961,1.961,0,0,0,142.841.257ZM125.7,22.579,96.613,64.574a1.962,1.962,0,0,0-.349,1.117v12l-8.6-15.645ZM100.187,80.673V68.342l9.609,2.94Zm1.18-16.072L139.908,8.964V76.392Z" transform="translate(-43.408)"/><path class="c" d="M75.657,345.223a1.962,1.962,0,0,0-2.774,0l-18.31,18.31a1.961,1.961,0,0,0,2.774,2.774L75.657,348A1.961,1.961,0,0,0,75.657,345.223Z" transform="translate(-43.408 -277.05)"/><path class="c" d="M5.086,469.575.575,474.086a1.961,1.961,0,1,0,2.774,2.774l4.511-4.511a1.961,1.961,0,1,0-2.774-2.774Z" transform="translate(0 -377.013)"/><path class="c" d="M127.541,491.41a1.962,1.962,0,1,0,1.386.575A1.972,1.972,0,0,0,127.541,491.41Z" transform="translate(-100.949 -395.027)"/><path class="c" d="M160.807,417.581l-9.7,9.7a1.961,1.961,0,1,0,2.774,2.774l9.7-9.7a1.961,1.961,0,1,0-2.774-2.774Z" transform="translate(-121.009 -335.216)"/><path class="c" d="M331.352,413.785l-9.724,9.724a1.961,1.961,0,1,0,2.774,2.774l9.724-9.724a1.961,1.961,0,0,0-2.774-2.774Z" transform="translate(-258.083 -332.165)"/><path class="b" d="M268.391,137.3a1.962,1.962,0,1,0-1.387-.575A1.968,1.968,0,0,0,268.391,137.3Z" transform="translate(-214.173 -107.22)"/></g></svg>