<svg xmlns="http://www.w3.org/2000/svg" width="99.999" height="100" viewBox="0 0 99.999 100"><defs><style>.a{fill:#e0e8ff;}.b{fill:#fff;}.c{fill:#6f93f4;}</style></defs><g transform="translate(-0.001 0)"><path class="a" d="M407.488,10a85.462,85.462,0,0,1-4.742,22.856L384.632,14.743A85.461,85.461,0,0,1,407.488,10Z" transform="translate(-309.487 -8.049)"/><path class="b" d="M220.862,34.3l18.114,18.114c-2.838,8.036-7.367,16.853-14.576,24.062a76.284,76.284,0,0,1-22.991,15.647L181.152,71.868A77.464,77.464,0,0,1,191.61,54.661a72.453,72.453,0,0,1,5.189-5.784C204.008,41.668,212.825,37.139,220.862,34.3Z" transform="translate(-145.717 -27.607)"/><path class="c" d="M333.653,113.712a7.806,7.806,0,1,1-11.04,0A7.807,7.807,0,0,1,333.653,113.712Z" transform="translate(-257.753 -89.66)"/><g transform="translate(20.681 23.969)"><path class="a" d="M294.8,277.341c10.058,15.087-8.77,24.839-19.318,24.839a14.5,14.5,0,0,0,3.907-12.652l-2.059-2.059a77.467,77.467,0,0,0,17.207-10.458Z" transform="translate(-242.363 -246.876)"/><path class="a" d="M163.407,241.094l-.316-.316a3.783,3.783,0,0,1-1.064-3.569,68,68,0,0,1,3.647-10.407l20.257,20.257a68.006,68.006,0,0,1-10.407,3.647,3.783,3.783,0,0,1-3.569-1.064l-.316-.316Z" transform="translate(-150.964 -206.465)"/><path class="a" d="M130.611,125.462l.33.263a77.464,77.464,0,0,0-10.458,17.207l-2.059-2.059a14.5,14.5,0,0,0-12.652,3.907C105.772,134.232,115.524,115.4,130.611,125.462Z" transform="translate(-105.772 -122.596)"/></g><path class="b" d="M118.215,300.041l8.232,8.232a15.38,15.38,0,0,1-4.116,6.924c-4.572,4.572-16.559,5.519-16.559,5.519s.946-11.986,5.519-16.559A15.38,15.38,0,0,1,118.215,300.041Z" transform="translate(-85.108 -241.427)"/><path class="a" d="M254.919,243.75a1.952,1.952,0,1,0-2.761,0A1.953,1.953,0,0,0,254.919,243.75Z" transform="translate(-202.446 -193.46)"/><path class="a" d="M327.256,118.075a9.758,9.758,0,1,0-13.8,0A9.753,9.753,0,0,0,327.256,118.075Zm-11.04-11.04a5.855,5.855,0,1,1,0,8.28A5.852,5.852,0,0,1,316.216,107.035Z" transform="translate(-249.926 -81.604)"/><path class="c" d="M97.223,47.912a1.951,1.951,0,0,0,2.127-.423,12.424,12.424,0,0,1,10.333-3.466l.683.683a68.64,68.64,0,0,0-3.223,9.478,5.524,5.524,0,0,0,.236,3.39,18.481,18.481,0,0,0-5.27,3.716c-5.023,5.024-6.043,17.266-6.084,17.785A1.951,1.951,0,0,0,97.97,81.18q.077,0,.154-.006c.519-.041,12.762-1.061,17.785-6.084a18.481,18.481,0,0,0,3.715-5.269,5.511,5.511,0,0,0,3.392.235,68.649,68.649,0,0,0,9.477-3.223l.683.683a12.424,12.424,0,0,1-3.466,10.332,1.951,1.951,0,0,0,1.38,3.331c7.724,0,18.523-4.6,22.5-12.032,1.727-3.227,2.9-8.333-.847-14.7,1.59-1.344,3.121-2.749,4.566-4.193,6.444-6.444,11.5-14.785,15.036-24.792A86.692,86.692,0,0,0,177.2,2.022,1.951,1.951,0,0,0,175.176,0,86.694,86.694,0,0,0,151.74,4.854c-10.007,3.533-18.349,8.592-24.793,15.036-1.444,1.444-2.849,2.975-4.193,4.566-6.371-3.75-11.477-2.574-14.7-.847-7.432,3.977-12.032,14.776-12.032,22.5A1.953,1.953,0,0,0,97.223,47.912Zm15.926,24.418c-2.683,2.683-8.978,4.1-12.957,4.676.578-3.979,1.993-10.273,4.677-12.956a14.064,14.064,0,0,1,5-3.284l6.567,6.567A14.061,14.061,0,0,1,113.149,72.329Zm8.9-6.055a1.831,1.831,0,0,1-1.705-.553l-8.862-8.862a1.832,1.832,0,0,1-.555-1.705A63.369,63.369,0,0,1,113.36,47.7L129.5,63.838A63.325,63.325,0,0,1,122.046,66.274Zm28.1,1.032c-2.557,4.777-8.995,8.3-14.861,9.511a16.61,16.61,0,0,0,1.6-10.718,2.038,2.038,0,0,0-.593-.986,78.936,78.936,0,0,0,13.365-8.2C151.69,60.624,151.857,64.114,150.149,67.306Zm19.5-46.115-13.64-13.64a87.738,87.738,0,0,1,17.124-3.483A87.754,87.754,0,0,1,169.648,21.191Zm-39.94,1.459a60.852,60.852,0,0,1,22.183-13.7l16.352,16.352a60.847,60.847,0,0,1-13.7,22.183,70.834,70.834,0,0,1-5.628,5.049,74.978,74.978,0,0,1-15.557,9.644L115.015,43.835a74.964,74.964,0,0,1,9.644-15.557A70.821,70.821,0,0,1,129.708,22.65Zm-19.816,4.4c3.193-1.708,6.682-1.541,10.392.49a78.905,78.905,0,0,0-8.2,13.365,2.058,2.058,0,0,0-1.033-.607,16.68,16.68,0,0,0-10.671,1.613C101.594,36.044,105.115,29.607,109.892,27.05Z" transform="translate(-77.197)"/><path class="a" d="M198.352,418.973l5.519-5.521a1.952,1.952,0,0,0-2.76-2.759l-5.519,5.521a1.952,1.952,0,0,0,2.76,2.759Z" transform="translate(-156.926 -330.003)"/><path class="a" d="M56.923,277.552l5.521-5.519a1.951,1.951,0,1,0-2.759-2.76l-5.521,5.519a1.951,1.951,0,1,0,2.759,2.76Z" transform="translate(-43.132 -216.216)"/><path class="a" d="M98.643,424.842,85.423,438.06a1.952,1.952,0,1,0,2.76,2.76L101.4,427.6a1.952,1.952,0,0,0-2.76-2.76Z" transform="translate(-68.275 -341.392)"/><path class="a" d="M18.643,424.842,5.423,438.06a1.952,1.952,0,1,0,2.76,2.76L21.4,427.6a1.952,1.952,0,0,0-2.76-2.76Z" transform="translate(-3.904 -341.392)"/><path class="a" d="M3.333,355.961l13.218-13.22a1.952,1.952,0,0,0-2.76-2.76L.573,353.2a1.952,1.952,0,0,0,2.76,2.76Z" transform="translate(0 -273.108)"/><path class="a" d="M283.2,204.081l2.759-2.759a1.952,1.952,0,1,0-2.76-2.76l-2.759,2.759a1.952,1.952,0,1,0,2.76,2.76Z" transform="translate(-225.205 -159.318)"/></g></svg>