<svg xmlns="http://www.w3.org/2000/svg" width="53.243" height="32.967" viewBox="0 0 53.243 32.967"><defs><style>.a{fill:#ed4c14;}.b{fill:#dc0118;}.c{fill:#fa8a06;}</style></defs><g transform="translate(26.622 16.484)"><g transform="translate(-26.622 -16.484)"><rect class="a" width="14.443" height="25.929" transform="translate(19.392 3.525)"/><path class="b" d="M20.433,16.5A16.474,16.474,0,0,1,26.716,3.555a16.474,16.474,0,1,0,0,25.937A16.474,16.474,0,0,1,20.433,16.5" transform="translate(-0.083 -0.03)"/><path class="c" d="M134.706,68.651v-.536h.23V68H134.4v.115h.23v.536Zm1.073,0V68h-.153l-.192.421L135.243,68h-.153v.651h.115v-.5l.192.421h.115l.192-.421v.5Z" transform="translate(-82.941 -41.948)"/><path class="c" d="M79.791,0A16.436,16.436,0,0,0,69.6,3.525a16.474,16.474,0,0,1,0,25.937A16.474,16.474,0,1,0,79.791,0" transform="translate(-42.967 0)"/></g></g></svg>