<svg xmlns="http://www.w3.org/2000/svg" width="132.112" height="33.76" viewBox="0 0 132.112 33.76"><defs><style>.a{fill:#139ad6;}.b{fill:#263b80;}.c{fill:#232c65;}</style></defs><g transform="translate(66.056 16.88)"><g transform="translate(-66.056 -16.88)"><path class="a" d="M358.295,33.6h-7.129a1.393,1.393,0,0,0-1.048.839l-2.936,18.453a.55.55,0,0,0,.629.629h3.774a.55.55,0,0,0,.629-.629l.839-5.242a.959.959,0,0,1,1.048-.839h2.307q7.234,0,8.178-6.92a5.5,5.5,0,0,0-.839-4.613,8.458,8.458,0,0,0-5.452-1.678m.839,6.92c-.419,2.516-2.307,2.516-4.194,2.516h-1.258l.839-4.823c0-.21.21-.419.629-.419h.419c1.258,0,2.516,0,3.145.839.419.21.419.839.419,1.887" transform="translate(-256.175 -24.793)"/><g transform="translate(39.625 8.807)"><path class="b" d="M162.295,33.6h-7.13a1.393,1.393,0,0,0-1.048.839l-2.936,18.453a.55.55,0,0,0,.629.629h3.355a1.393,1.393,0,0,0,1.048-.839l.839-5.033a.959.959,0,0,1,1.048-.839h2.307q7.234,0,8.178-6.92a5.5,5.5,0,0,0-.839-4.613,8.06,8.06,0,0,0-5.452-1.678m.839,6.92c-.419,2.516-2.307,2.516-4.194,2.516h-1.048l.839-4.823c0-.21.21-.419.629-.419h.419c1.258,0,2.516,0,3.145.839a2.246,2.246,0,0,1,.21,1.887" transform="translate(-151.175 -33.6)"/><path class="b" d="M230.156,58.019H226.8c-.21,0-.629.21-.629.419l-.21,1.048-.21-.419a4.933,4.933,0,0,0-3.984-1.468,8.058,8.058,0,0,0-7.759,6.92,6.238,6.238,0,0,0,1.258,5.242,5.284,5.284,0,0,0,4.4,1.678,6.7,6.7,0,0,0,4.823-1.887l-.21,1.048a.55.55,0,0,0,.629.629h3.145a1.393,1.393,0,0,0,1.048-.839l1.887-11.743c-.21-.21-.629-.629-.839-.629m-4.823,6.71a4.056,4.056,0,0,1-3.984,3.355,3.355,3.355,0,0,1-2.307-.839,4.472,4.472,0,0,1-.629-2.516,3.74,3.74,0,0,1,6.081-2.516c.629.419.839,1.678.839,2.516" transform="translate(-197.437 -51.309)"/></g><path class="a" d="M425.356,58.019H422c-.21,0-.629.21-.629.419l-.21,1.048-.21-.419a4.933,4.933,0,0,0-3.984-1.468,8.058,8.058,0,0,0-7.759,6.92,6.238,6.238,0,0,0,1.258,5.242,5.284,5.284,0,0,0,4.4,1.678,6.7,6.7,0,0,0,4.823-1.887l-.21,1.048a.55.55,0,0,0,.629.629h3.145a1.393,1.393,0,0,0,1.048-.839l1.887-11.743c-.21-.21-.419-.629-.839-.629m-4.823,6.71a4.056,4.056,0,0,1-3.984,3.355,3.355,3.355,0,0,1-2.307-.839,4.471,4.471,0,0,1-.629-2.516,3.74,3.74,0,0,1,6.081-2.516,2.411,2.411,0,0,1,.839,2.516" transform="translate(-301.848 -42.502)"/><path class="b" d="M300.146,59.2h-3.565a1.1,1.1,0,0,0-.839.419l-4.613,7.129-2.1-6.71a.969.969,0,0,0-1.048-.629h-3.355c-.419,0-.629.419-.629.839l3.774,11.114-3.565,5.033c-.21.419,0,1.048.419,1.048h3.355a1.1,1.1,0,0,0,.839-.419l11.533-16.566c.629-.629.21-1.258-.21-1.258" transform="translate(-209.56 -43.683)"/><path class="a" d="M478.117,34.588,475.181,53.46a.55.55,0,0,0,.629.629h2.936a1.393,1.393,0,0,0,1.048-.839L482.73,34.8a.55.55,0,0,0-.629-.629h-3.355c-.21-.21-.419,0-.629.419" transform="translate(-350.625 -25.152)"/><path class="b" d="M24.114,2.516C22.647.839,19.921,0,16.146,0H5.662A1.8,1.8,0,0,0,4.194,1.258L0,28.728a.959.959,0,0,0,.839,1.048h6.5L9.017,19.5v.419a1.8,1.8,0,0,1,1.468-1.258H13.63c6.081,0,10.694-2.516,12.162-9.436V8.6h0c.21-2.726-.21-4.4-1.678-6.081"/><path class="a" d="M44.459,32.8h0v.629c-1.468,7.129-6.081,9.436-12.162,9.436H29.152a1.8,1.8,0,0,0-1.468,1.258l-2.1,12.791a.76.76,0,0,0,.839.839h5.452A1.174,1.174,0,0,0,33.136,56.7V56.5l1.048-6.5v-.419a1.174,1.174,0,0,1,1.258-1.048h.839c5.242,0,9.436-2.1,10.485-8.388.419-2.516.21-4.823-1.048-6.291A2.149,2.149,0,0,0,44.459,32.8" transform="translate(-18.877 -24.203)"/><path class="c" d="M49.5,28.611c-.21,0-.419-.21-.629-.21a.76.76,0,0,1-.629-.21,11.078,11.078,0,0,0-2.726-.21H37.336a.76.76,0,0,0-.629.21,1.153,1.153,0,0,0-.629,1.048L34.4,40.144v.419a1.8,1.8,0,0,1,1.468-1.258h3.145c6.081,0,10.694-2.516,12.162-9.436a.76.76,0,0,1,.21-.629c-.419-.21-.629-.419-1.048-.419s-.629-.21-.839-.21" transform="translate(-25.383 -20.643)"/></g></g></svg>