<svg xmlns="http://www.w3.org/2000/svg" xmlns:xlink="http://www.w3.org/1999/xlink" width="99.999" height="99.993" viewBox="0 0 99.999 99.993"><defs><style>.a{fill:none;}.b{fill:#e0e8ff;}.c{clip-path:url(#a);}.d{fill:#6f93f4;}</style><clipPath id="a"><rect class="a" width="99.999" height="99.993"/></clipPath></defs><g transform="translate(50 49.997)"><g transform="translate(-50 -49.997)"><path class="b" d="M98.1,11.862,101.427,8.3,151.5,23.173l-15.91,16.575Z" transform="translate(-78.903 -6.676)"/><path class="b" d="M340.2,155.142,356.873,139.8,372,189.486l-3.933,3.659Z" transform="translate(-273.625 -112.442)"/><path class="b" d="M104.725,290.788,93.805,286.6,89.5,290.788l9,8.747Z" transform="translate(-71.985 -230.514)"/><path class="b" d="M158.4,350.158l8.082-6.458,4.931,10.92-4.52,4.56Z" transform="translate(-127.402 -276.44)"/><g class="c"><path class="d" d="M160.07,62.275l2.857-2.857a4.618,4.618,0,0,0-5.832-7.1l-.607-2.016,3.092-3.092a4.618,4.618,0,0,0-6.086-6.928l-3.679-12.329c1.468-1.409,2.877-2.779,4.188-4.11a48.742,48.742,0,0,0,8.728-11.37c3.072-5.949,1.781-9.119.176-10.744s-4.794-2.9-10.744.176a48.742,48.742,0,0,0-11.37,8.728c-1.331,1.331-2.7,2.72-4.11,4.188l-12.329-3.679a4.618,4.618,0,0,0-6.928-6.086l-3.053,3.112-2.016-.607a4.618,4.618,0,0,0-7.1-5.832L102.4,4.585,87.821.24a1.468,1.468,0,0,0-1.468.372L82.6,4.37A1.487,1.487,0,0,0,82.772,6.6l36.79,26.927c-8.3,9.354-16.282,18.708-21.918,25.4L86.823,54.76a1.468,1.468,0,0,0-1.566.333L80.8,59.535a1.468,1.468,0,0,0,0,2.094L103.026,83.86a1.487,1.487,0,0,0,2.094,0l4.442-4.442a1.468,1.468,0,0,0,.333-1.566L105.727,67.03c6.693-5.636,16.047-13.62,25.4-21.918l2.916,3.992a1.478,1.478,0,1,0,2.387-1.742l-3.092-4.227c4.892-4.364,9.726-8.767,14.109-12.916l13.894,46.634-1.918,1.918-19.1-26.086a1.478,1.478,0,1,0-2.387,1.742l20.117,27.456a1.487,1.487,0,0,0,2.231.176l3.757-3.757a1.468,1.468,0,0,0,.372-1.468ZM119.562,7.148a1.674,1.674,0,0,1,2.368,2.368l-.685.685-3.64-1.076ZM107.331,3.822A1.674,1.674,0,1,1,109.7,6.189l-.45.431-3.64-1.076ZM85.9,5.231l1.918-1.918,46.634,13.894c-4.149,4.384-8.552,9.217-12.916,14.109Zm.744,52.622L95.629,61.3l-4.99,5.988-6.732-6.693Zm6.066,11.526c5.147-6.184,32.309-38.786,50.2-56.673a46.716,46.716,0,0,1,10.626-8.2c2.407-1.252,5.616-2.368,7.3-.7s.548,4.892-.7,7.3a45.947,45.947,0,0,1-8.18,10.646c-17.886,17.886-50.489,45.068-56.692,50.2Zm14.07,8.63-2.72,2.72-6.712-6.712,5.988-4.99Zm51.7-23.053a1.674,1.674,0,1,1,2.368,2.368l-1.742,1.742-1.076-3.659Zm-3.327-12.231a1.674,1.674,0,1,1,2.368,2.368L155.55,47.07l-1.1-3.659Z" transform="translate(-64.631 -0.025)"/><path class="b" d="M398.7,432.118,386.118,444.7a1.481,1.481,0,0,0,2.094,2.094l12.583-12.583a1.481,1.481,0,1,0-2.094-2.094" transform="translate(-310.208 -347.207)"/><path class="b" d="M388.059,402.04a1.474,1.474,0,1,0-2.074-2.094l-7.867,7.867a1.481,1.481,0,0,0,2.094,2.094Z" transform="translate(-303.774 -321.336)"/><path class="b" d="M373.691,361.84a1.474,1.474,0,1,0-2.074-2.094l-5.5,5.5a1.481,1.481,0,0,0,2.094,2.094Z" transform="translate(-294.122 -289.003)"/><path class="b" d="M15.053,50.4a1.468,1.468,0,0,0-2.094,0L.4,62.978a1.468,1.468,0,0,0,0,2.094,1.487,1.487,0,0,0,2.094,0l12.563-12.6a1.468,1.468,0,0,0,0-2.094" transform="translate(0.035 -40.18)"/><path class="b" d="M66.647,82.536a1.468,1.468,0,0,0-2.074,0L56.706,90.4A1.474,1.474,0,1,0,58.78,92.5l7.867-7.867a1.468,1.468,0,0,0,0-2.094" transform="translate(-45.258 -66.039)"/><path class="b" d="M108.9,114.211a1.487,1.487,0,0,0,2.094,0l5.5-5.5a1.481,1.481,0,1,0-2.094-2.094l-5.5,5.5a1.468,1.468,0,0,0,0,2.094" transform="translate(-87.232 -85.405)"/></g></g></g></svg>