<svg xmlns="http://www.w3.org/2000/svg" width="91.341" height="100" viewBox="0 0 91.341 100"><defs><style>.a{fill:#e0e8ff;}.b{fill:#6f93f4;}</style></defs><g transform="translate(-21 0.771)"><g transform="translate(21 -0.771)"><g transform="translate(0 0)"><path class="a" d="M161.8,28.952C161.8,12.988,149.437,0,134.235,0s-27.568,12.988-27.568,28.952c0,13.826,9.86,33.774,23.939,36.794l-3.852,5.394a2.154,2.154,0,0,0-.186,2.165,1.962,1.962,0,0,0,1.762,1.143h3.763a5.975,5.975,0,0,1-1.363,2.844c-1.069,1.406-2.4,3.152-2.4,7.5s1.331,6.091,2.4,7.5c.894,1.171,1.538,2.017,1.538,4.911a1.972,1.972,0,1,0,3.938,0c0-4.344-1.331-6.091-2.4-7.5-.894-1.171-1.538-2.017-1.538-4.911s.644-3.74,1.538-4.911a9.973,9.973,0,0,0,2.27-5.429h4.068a1.962,1.962,0,0,0,1.762-1.143,2.154,2.154,0,0,0-.186-2.165l-3.852-5.394C151.943,62.726,161.8,42.778,161.8,28.952ZM127.236,14.133a16.57,16.57,0,0,0-8.754,14.82,1.972,1.972,0,1,1-3.938,0,20.712,20.712,0,0,1,10.938-18.523,1.928,1.928,0,0,1,2.64.931A2.116,2.116,0,0,1,127.236,14.133Z" transform="translate(-88.404 0.735)"/><path class="b" d="M452.485,11.976c0-1.557.62-2.232,1.649-3.347a8.719,8.719,0,0,0,2.836-6.386,2.243,2.243,0,0,0-4.486,0c0,1.557-.62,2.232-1.649,3.347a8.608,8.608,0,0,0,0,12.773c1.029,1.115,1.649,1.789,1.649,3.344s-.62,2.225-1.649,3.338A8.711,8.711,0,0,0,448,31.424a2.243,2.243,0,0,0,4.486,0c0-1.551.62-2.223,1.647-3.336a8.6,8.6,0,0,0,0-12.766C453.105,14.207,452.485,13.533,452.485,11.976Z" transform="translate(-365.63 0.735)"/><circle class="b" cx="4.485" cy="4.485" r="4.485" transform="translate(68.914 62.279)"/><circle class="b" cx="4.485" cy="4.485" r="4.485" transform="translate(20.813 77.573)"/><path class="b" d="M6.907,0a7.107,7.107,0,0,1,6.907,7.291,7.107,7.107,0,0,1-6.907,7.291A7.107,7.107,0,0,1,0,7.291,7.107,7.107,0,0,1,6.907,0Z"/></g></g></g></svg>