<svg xmlns="http://www.w3.org/2000/svg" xmlns:xlink="http://www.w3.org/1999/xlink" width="102" height="42.444" viewBox="0 0 102 42.444"><defs><style>.a{fill:none;}.b{clip-path:url(#a);}.c{fill:#6772e5;}</style><clipPath id="a"><rect class="a" width="102" height="42.444"/></clipPath></defs><g transform="translate(51 21.222)"><g class="b" transform="translate(-51 -21.222)"><path class="c" d="M7.172,16.635c0-1.1.916-1.534,2.411-1.534a15.8,15.8,0,0,1,7.032,1.813V10.26A18.687,18.687,0,0,0,9.582,8.965C3.825,8.945,0,11.953,0,16.973c0,7.829,10.758,6.574,10.758,9.941,0,1.295-1.136,1.733-2.729,1.733A17.44,17.44,0,0,1,.3,26.377V33.11a19.643,19.643,0,0,0,7.73,1.614c5.9,0,9.941-2.909,9.941-7.989,0-8.427-10.8-6.933-10.8-10.1M26.317,3.287,19.4,4.761V27.452a7.116,7.116,0,0,0,7.331,7.271,10.824,10.824,0,0,0,4.961-.936V28.05c-.916.359-5.379,1.673-5.379-2.53V15.479H31.7V9.443H26.3Zm14.164,8.248-.438-2.092H33.907V34.226H41V17.432a4.961,4.961,0,0,1,5.379-1.474V9.443c-.916-.339-4.223-.956-5.9,2.092m7.63-2.092h7.112V34.226H48.111Zm0-2.152,7.112-1.534V0L48.111,1.494ZM70.005,8.965a8.009,8.009,0,0,0-5.538,2.191L64.109,9.4H57.853v33.03l7.092-1.494V32.931a7.99,7.99,0,0,0,5.02,1.793c5.08,0,9.682-4.084,9.682-13.069-.02-8.208-4.7-12.69-9.662-12.69M68.292,28.488a4.236,4.236,0,0,1-3.347-1.335V16.635a4.227,4.227,0,0,1,3.367-1.395c2.57,0,4.363,2.889,4.363,6.594s-1.753,6.634-4.363,6.634M102,21.934c0-7.252-3.506-12.969-10.22-12.969S80.963,14.682,80.963,21.894c0,8.527,4.821,12.83,11.734,12.83a15.847,15.847,0,0,0,7.849-1.833v-5.7a15.164,15.164,0,0,1-6.933,1.554c-2.789,0-5.18-.956-5.5-4.3H101.96c0-.359.06-1.833.06-2.53m-14.025-2.67c0-3.207,1.952-4.542,3.745-4.542s3.566,1.335,3.566,4.542Z"/></g></g></svg>