<svg xmlns="http://www.w3.org/2000/svg" width="65.6" height="41.044" viewBox="0 0 65.6 41.044"><defs><style>.a{fill:#fff;}.b{fill:#0c3387;}.c{fill:#f90;}</style></defs><g transform="translate(32.8 20.522)"><g transform="translate(-32.8 -20.522)"><path class="a" d="M0,12.8V51.709H65.6V12.8Z" transform="translate(0 -11.78)"/><path class="b" d="M136.4,154.786l3.823,14.433h4.444l6.906-16.719h-4.5l-4.349,11.35-1.792-8.881-4.532-.183Z" transform="translate(-125.536 -140.353)"/><path class="b" d="M317.452,151.7,314.8,168.482h4.19l2.716-16.782Z" transform="translate(-289.726 -139.617)"/><path class="b" d="M415.955,152.953l.613-3.513a12.218,12.218,0,0,0-4.07-.741c-2.222,0-7.033,1.418-7.033,5.552s5.982,4.317,5.982,6.6-5.368,2.039-6.969.558l-.677,3.64a15.018,15.018,0,0,0,4.564.924c2.159,0,7.527-.494,7.527-5.862,0-4.691-5.982-3.767-5.982-6.6C409.909,153.511,410.523,150.675,415.955,152.953Z" transform="translate(-371.637 -136.856)"/><path class="b" d="M552.5,170.691h4.628l.8-2.405h5.679l.47,2.382H568.1L564.408,154.1h-3.7a2.615,2.615,0,0,0-1.975,1.792c-.621,1.641-6.229,14.807-6.229,14.807Z" transform="translate(-508.493 -141.826)"/><path class="a" d="M639.96,217.565H636.2l2.342-6.165,1.418,6.165Z" transform="translate(-585.526 -194.562)"/><path class="b" d="M89.426,161.524,88.1,154.961s-.175-2.461-1.936-2.461H79v.342a15.017,15.017,0,0,1,10.418,8.682Z" transform="translate(-72.708 -140.353)"/><rect class="c" width="65.6" height="9.725" transform="translate(0 31.319)"/><rect class="b" width="65.6" height="9.725"/></g></g></svg>