<svg xmlns="http://www.w3.org/2000/svg" width="83.282" height="83.282" viewBox="0 0 83.282 83.282"><defs><style>.a{fill:#fff;}</style></defs><path class="a" d="M133.894,91.436a4.192,4.192,0,1,0-3.346-1.673l-6.88,9.614a4.176,4.176,0,0,0-4.154.915l-4.586-2.6a4.187,4.187,0,1,0-8.187,0l-4.586,2.6a4.181,4.181,0,1,0,1.243,2.183l4.586-2.6a4.177,4.177,0,0,0,5.7,0l4.586,2.6a4.188,4.188,0,1,0,7.439-1.635l6.88-9.614A4.174,4.174,0,0,0,133.894,91.436Zm0-5.863a1.675,1.675,0,1,1-1.675,1.675A1.677,1.677,0,0,1,133.894,85.573ZM99.3,105.031a1.675,1.675,0,1,1,1.675-1.675A1.677,1.677,0,0,1,99.3,105.031Zm11.53-6.547a1.675,1.675,0,1,1,1.675-1.675A1.677,1.677,0,0,1,110.835,98.485Zm11.53,6.547a1.675,1.675,0,1,1,1.675-1.675A1.677,1.677,0,0,1,122.364,105.031Z" transform="translate(-80.108 -70.308)"/><path class="a" d="M70.146,96.335H3.553A1.04,1.04,0,0,1,2.512,95.3V43.657a1.04,1.04,0,0,1,1.041-1.037H9.475a1.252,1.252,0,1,0,0-2.5H3.553A3.551,3.551,0,0,0,0,43.657V95.3a3.551,3.551,0,0,0,3.553,3.541h8.662v2.755a2.854,2.854,0,0,0,2.856,2.846H27.646l-5.919,11.515a1.255,1.255,0,0,0,2.236,1.141l6.506-12.657H44.358L50.864,117.1a1.255,1.255,0,0,0,2.236-1.141L47.18,104.439H59.755a2.854,2.854,0,0,0,2.856-2.846V98.838h7.535a1.252,1.252,0,1,0,0-2.5ZM60.1,101.593a.344.344,0,0,1-.344.343H15.071a.344.344,0,0,1-.344-.343V98.838H60.1Z" transform="translate(0 -34.495)"/><path class="a" d="M80.3,14.691h55.507a1.031,1.031,0,0,1,1.018,1.041V27.676a1.229,1.229,0,1,0,2.456,0V15.732a3.518,3.518,0,0,0-3.474-3.553H109.518V9.71a3.121,3.121,0,0,0-3.081-3.152h-7.47A3.121,3.121,0,0,0,95.885,9.71v2.469H80.3a1.257,1.257,0,0,0,0,2.512ZM98.341,9.71a.633.633,0,0,1,.625-.639h7.47a.633.633,0,0,1,.625.639v2.469h-8.72V9.71Z" transform="translate(-66.929 -6.558)"/><path class="a" d="M98.658,267.576a1.256,1.256,0,0,0-1.256,1.256v11.1a1.256,1.256,0,0,0,1.256,1.256h5.1a1.256,1.256,0,0,0,1.256-1.256v-11.1a1.256,1.256,0,0,0-1.256-1.256Zm3.84,11.1H99.914v-8.588H102.5Z" transform="translate(-81.604 -224.031)"/><path class="a" d="M167.493,229.248a1.256,1.256,0,0,0-1.256,1.256v17.52a1.256,1.256,0,0,0,1.256,1.256h5.1a1.256,1.256,0,0,0,1.256-1.256V230.5a1.256,1.256,0,0,0-1.256-1.256Zm3.84,17.52H168.75V231.76h2.584Z" transform="translate(-139.275 -192.112)"/><path class="a" d="M236.329,267.576a1.256,1.256,0,0,0-1.256,1.256v11.1a1.256,1.256,0,0,0,1.256,1.256h5.1a1.256,1.256,0,0,0,1.256-1.256v-11.1a1.256,1.256,0,0,0-1.256-1.256Zm3.84,11.1h-2.584v-8.588h2.584Z" transform="translate(-196.947 -224.031)"/><path class="a" d="M305.165,311.832a1.256,1.256,0,0,0-1.256,1.256v3.688a1.256,1.256,0,0,0,1.256,1.256h5.1a1.256,1.256,0,1,0,0-2.512h-3.84v-2.431A1.256,1.256,0,0,0,305.165,311.832Z" transform="translate(-254.618 -260.884)"/><path class="a" d="M331.149,184.6l-7.207-12.483A16.427,16.427,0,1,0,307.7,176.75a16.51,16.51,0,0,0,4.276.566,16.212,16.212,0,0,0,3.7-.427l7.205,12.483a4.775,4.775,0,1,0,8.271-4.775Zm-22.8-10.274a13.907,13.907,0,1,1,10.552-1.389A13.816,13.816,0,0,1,308.349,174.323Zm19.8,14.621a2.265,2.265,0,0,1-3.091-.828l-6.932-12.01a16.491,16.491,0,0,0,3.917-2.264l6.934,12.011a2.261,2.261,0,0,1-.828,3.091Z" transform="translate(-248.508 -121.551)"/><path class="a" d="M345.622,186.713a11.888,11.888,0,0,0-.595-8.612,1.256,1.256,0,1,0-2.273,1.071,9.409,9.409,0,1,1-2.837-3.505,1.256,1.256,0,1,0,1.516-2,11.929,11.929,0,1,0,4.188,13.05Z" transform="translate(-270.792 -143.787)"/></svg>