<svg xmlns="http://www.w3.org/2000/svg" width="83.283" height="83.282" viewBox="0 0 83.283 83.282"><defs><style>.a{fill:#fff;}</style></defs><path class="a" d="M76.451,29.279H53.573c.072-.8.112-1.615.112-2.437A26.849,26.849,0,0,0,13.43,3.586,1.627,1.627,0,1,0,15.058,6.4,23.591,23.591,0,1,1,26.842,50.432,23.325,23.325,0,0,1,12.05,45.216a1.628,1.628,0,0,0-1.5-.287L6.234,46.058l1.691-3.717A1.626,1.626,0,0,0,7.76,40.71,23.6,23.6,0,0,1,6.419,15.03,1.627,1.627,0,1,0,3.6,13.4,26.86,26.86,0,0,0,4.579,41.84L1.856,47.823a1.626,1.626,0,0,0,1.892,2.247l6.918-1.808A26.836,26.836,0,0,0,30.58,53.424V67.667A6.84,6.84,0,0,0,37.412,74.5H60.417L70.7,82.915a1.627,1.627,0,0,0,2.657-1.259V74.5h3.091a6.84,6.84,0,0,0,6.832-6.832V36.111A6.839,6.839,0,0,0,76.451,29.279Zm3.579,38.388a3.583,3.583,0,0,1-3.579,3.579H71.734a1.626,1.626,0,0,0-1.627,1.627v5.351L62.073,71.65c-.443-.4-.83-.4-1.7-.4H37.412a3.582,3.582,0,0,1-3.578-3.579V52.76A26.932,26.932,0,0,0,53.076,32.532H76.451a3.582,3.582,0,0,1,3.579,3.579Zm0,0" transform="translate(0)"/><path class="a" d="M308.494,268.589a1.877,1.877,0,0,0-.8-3.576h-.769l-6.058-13.806a1.878,1.878,0,0,0-3.441,0l-6.058,13.806H290.6a1.877,1.877,0,0,0-.8,3.576l-2.256,5.142a1.878,1.878,0,1,0,3.44,1.509l2.84-6.471h10.648l2.84,6.471a1.878,1.878,0,1,0,3.44-1.509Zm-13.023-3.576,3.675-8.377,3.675,8.377Zm0,0" transform="translate(-242.982 -211.771)"/><path class="a" d="M47.281,49.155a1.879,1.879,0,1,0-1.328-.55A1.895,1.895,0,0,0,47.281,49.155Zm0,0" transform="translate(-36.874 -36.871)"/><path class="a" d="M101.109,111.784a1.879,1.879,0,1,0,1.807,3.295,21.512,21.512,0,0,0,9.3-10.085,21.516,21.516,0,0,0,9.3,10.085,1.879,1.879,0,0,0,1.807-3.295,17.765,17.765,0,0,1-9.024-12.926h8.34a1.878,1.878,0,0,0,0-3.757h-8.541V87.273a1.878,1.878,0,1,0-3.757,0V95.1h-6.786a1.878,1.878,0,1,0,0,3.757h6.585A17.764,17.764,0,0,1,101.109,111.784Zm0,0" transform="translate(-84.701 -72.475)"/></svg>