<svg xmlns="http://www.w3.org/2000/svg" width="71.055" height="73.793" viewBox="0 0 71.055 73.793"><defs><style>.a{fill:#fff;}</style></defs><g transform="translate(-9.497)"><g transform="translate(69.505 8.737)"><path class="a" d="M429.208,61.982a1.729,1.729,0,0,0-.1-.317,1.751,1.751,0,0,0-.156-.293,1.643,1.643,0,0,0-.467-.467,1.805,1.805,0,0,0-.293-.156,1.686,1.686,0,0,0-.978-.1,1.72,1.72,0,0,0-.316.1,1.8,1.8,0,0,0-.293.156,1.7,1.7,0,0,0-.719,1.076,1.662,1.662,0,0,0-.032.33,1.7,1.7,0,0,0,.032.332,1.691,1.691,0,0,0,.252.608,1.707,1.707,0,0,0,.21.259,1.7,1.7,0,0,0,.55.366,1.7,1.7,0,0,0,.316.1,1.72,1.72,0,0,0,.662,0,1.712,1.712,0,0,0,.316-.1,1.7,1.7,0,0,0,.55-.366,1.709,1.709,0,0,0,.5-1.2A1.684,1.684,0,0,0,429.208,61.982Z" transform="translate(-425.858 -60.62)"/></g><g transform="translate(61.841)"><g transform="translate(0)"><path class="a" d="M391.382,57.385a10.347,10.347,0,0,0-2.879-6.721,7.942,7.942,0,0,0,1.52-4.679c0-.193-.009-.385-.023-.575a101.435,101.435,0,0,0,1.2-16.383c0-.855-.037-1.963-.055-2.5l-.008-.225c-.23-7.56-1.105-13.979-2.531-18.563C387.011,2.605,384.8,0,382.036,0s-4.976,2.605-6.574,7.744c-1.426,4.584-2.3,11-2.531,18.563l-.008.225c-.018.533-.055,1.641-.055,2.5a101.425,101.425,0,0,0,1.2,16.382c-.014.19-.023.382-.023.575a7.941,7.941,0,0,0,1.485,4.63,10.292,10.292,0,0,0-2.842,7.646c.173,3.7,2.03,5.522,3.521,6.987,1.607,1.578,2.492,2.448,1.608,5.459a2.308,2.308,0,0,0,.577,2.61,2.009,2.009,0,0,0,1.321.475,3.29,3.29,0,0,0,1.456-.387C384.354,71.832,391.689,63.944,391.382,57.385ZM376.305,26.645l.008-.235c.524-17.227,4.149-23.025,5.723-23.025s5.2,5.8,5.723,23.025l.008.235c.017.514.053,1.585.053,2.383,0,3.877-.175,7.58-.512,10.944a7.954,7.954,0,0,0-3.579-1.794V15.991a1.692,1.692,0,0,0-3.385,0V38.178a7.956,7.956,0,0,0-3.579,1.794c-.337-3.364-.512-7.067-.512-10.944C376.252,28.229,376.288,27.159,376.305,26.645Zm10.333,19.34a4.6,4.6,0,0,1-1.683,3.556c-.078.064-.157.124-.239.182l-.085.061q-.132.09-.269.17l-.07.04c-.1.056-.2.11-.306.158l-.036.016a4.621,4.621,0,0,1-1.1.345l-.033.006q-.181.031-.364.048l-.047,0c-.123.01-.247.016-.372.016h0c-.127,0-.253-.006-.379-.017l-.043,0q-.187-.017-.371-.05l-.03-.005a4.613,4.613,0,0,1-1.132-.362l0,0c-.113-.053-.223-.112-.332-.174l-.043-.025c-.1-.059-.2-.122-.293-.189l-.06-.043q-.137-.1-.266-.207a4.6,4.6,0,0,1,2.243-8.073l.015,0c.064-.01.129-.018.195-.025l.039,0c.06-.006.12-.01.181-.014l.051,0q.113-.006.228-.006h0q.116,0,.231.006l.047,0c.062,0,.124.008.185.014l.035,0c.067.007.133.015.2.025l.011,0A4.61,4.61,0,0,1,386.638,45.985Zm-2.132,19.722a25.1,25.1,0,0,1-2.968,3.26c.114-3.118-1.556-4.759-2.954-6.133-1.288-1.266-2.4-2.359-2.512-4.731a6.873,6.873,0,0,1,1.962-5.206c.026.015.052.027.078.042q.159.09.322.173l.085.044a7.952,7.952,0,0,0,.916.381l.051.017q.232.078.47.143h0a7.915,7.915,0,0,0,.983.2l.1.013q.192.024.386.038l.121.009c.161.01.322.016.485.016h0c.161,0,.32-.006.479-.016l.12-.009q.19-.014.378-.037l.1-.013a7.923,7.923,0,0,0,1.435-.333l.054-.018q.213-.073.42-.156l.047-.019c.15-.062.3-.128.444-.2l.066-.034q.166-.083.329-.173c.024-.013.049-.025.073-.039A6.933,6.933,0,0,1,388,57.544C388.1,59.708,386.829,62.684,384.507,65.707Z" transform="translate(-372.68)"/></g></g><g transform="translate(9.497 6.384)"><g transform="translate(0)"><path class="a" d="M54.537,74.8a11.749,11.749,0,0,1,2.229-6.95,13.961,13.961,0,0,0,2.352-11.043A12.916,12.916,0,0,0,53,48.18a28.269,28.269,0,0,0-14.28-3.887H38.71C22.632,44.3,9.527,57.957,9.5,74.746a30.912,30.912,0,0,0,8.993,22.08,28.272,28.272,0,0,0,34.47,4.625A12.945,12.945,0,0,0,59.113,92.8a13.949,13.949,0,0,0-2.348-11.044A11.748,11.748,0,0,1,54.537,74.8ZM55.8,92.1a9.6,9.6,0,0,1-4.548,6.426,24.888,24.888,0,0,1-30.367-4.094,27.55,27.55,0,0,1-8-19.683C12.909,59.826,24.5,47.68,38.711,47.678h0A24.882,24.882,0,0,1,51.284,51.1,9.57,9.57,0,0,1,55.8,57.506a10.57,10.57,0,0,1-1.778,8.361,15.334,15.334,0,0,0,0,17.875A10.558,10.558,0,0,1,55.8,92.1Z" transform="translate(-9.497 -44.293)"/></g></g><g transform="translate(44.382 28.816)"><g transform="translate(0)"><path class="a" d="M258.29,218.444a17.636,17.636,0,0,1-3.358-10.428,17.881,17.881,0,0,1,.966-5.836,1.692,1.692,0,1,0-3.2-1.1,21.255,21.255,0,0,0-1.15,6.938,21,21,0,0,0,4,12.416,1.692,1.692,0,0,0,2.74-1.988Z" transform="translate(-251.547 -199.936)"/></g></g><g transform="translate(48.063 23.78)"><path class="a" d="M280.009,165.523l-.031-.031a1.692,1.692,0,0,0-2.4,2.39l.031.031a1.692,1.692,0,1,0,2.4-2.39Z" transform="translate(-277.088 -164.995)"/></g><g transform="translate(14.742 29.314)"><g transform="translate(0)"><path class="a" d="M53.473,203.392a7.582,7.582,0,1,0,7.582,7.582A7.59,7.59,0,0,0,53.473,203.392Zm0,11.778a4.2,4.2,0,1,1,4.2-4.2A4.2,4.2,0,0,1,53.473,215.17Z" transform="translate(-45.891 -203.392)"/></g></g><g transform="translate(25.807 45.368)"><path class="a" d="M135.608,316.994a7.582,7.582,0,1,0,0,10.722A7.591,7.591,0,0,0,135.608,316.994Zm-2.393,8.328a4.195,4.195,0,1,1,0-5.935A4.169,4.169,0,0,1,133.214,325.323Z" transform="translate(-122.665 -314.777)"/></g><g transform="translate(25.811 13.268)"><path class="a" d="M135.629,94.275a7.578,7.578,0,1,0,0,10.722A7.591,7.591,0,0,0,135.629,94.275Zm-2.393,8.328a4.195,4.195,0,1,1,0-5.935A4.2,4.2,0,0,1,133.235,102.6Z" transform="translate(-122.69 -92.058)"/></g></g></svg>