<svg xmlns="http://www.w3.org/2000/svg" width="83.282" height="83.282" viewBox="0 0 83.282 83.282"><defs><style>.a{fill:#fff;}</style></defs><path class="a" d="M270.576,193.122h-9.988V181.707a5.707,5.707,0,0,0-11.415,0v16.727l-1.655-1.972a5.707,5.707,0,1,0-8.741,7.323l10.728,12.8a7.135,7.135,0,0,0,3.948,4.472v7.739a1.427,1.427,0,0,0,1.427,1.427h19.976a1.427,1.427,0,0,0,1.427-1.427v-7.739a7.134,7.134,0,0,0,4.28-6.529V203.11A10,10,0,0,0,270.576,193.122ZM240.3,199.871a2.824,2.824,0,0,1,1.012-1.932,2.926,2.926,0,0,1,4.014.353l3.845,4.581v8.869l-8.211-9.793A2.821,2.821,0,0,1,240.3,199.871Zm33.126,27.5H256.308v-5.707H273.43Zm4.28-12.841a4.281,4.281,0,0,1-4.28,4.28H256.308a4.281,4.281,0,0,1-4.28-4.28V181.707a2.854,2.854,0,1,1,5.707,0v18.549h2.854v-4.28h4.28v4.28h2.854v-4.28h2.854a7.112,7.112,0,0,1,1.427.143v5.564h2.854v-4.244a7.1,7.1,0,0,1,2.854,5.67Zm0,0" transform="translate(-197.282 -146.937)"/><path class="a" d="M50.469,136.46l7.134-2.854a1.427,1.427,0,0,0,0-2.652L50.469,128.1a1.436,1.436,0,0,0-.529-.1H4.28a4.28,4.28,0,1,0,0,8.561H49.939A1.436,1.436,0,0,0,50.469,136.46Zm-3.383-2.753H8.561v-2.854H47.085Zm6.147-1.427L49.939,133.6v-2.633Zm-50.379,0a1.427,1.427,0,0,1,1.427-1.427H5.707v2.854H4.28A1.427,1.427,0,0,1,2.854,132.28Zm0,0" transform="translate(0 -105.86)"/><path class="a" d="M66.854,233.378V192H64v41.378a4.281,4.281,0,0,0,4.28,4.28h39.951V234.8H68.28A1.427,1.427,0,0,1,66.854,233.378Zm0,0" transform="translate(-52.585 -160.084)"/><path class="a" d="M66.854,4.28A1.427,1.427,0,0,1,68.28,2.854h39.951v9.988a4.281,4.281,0,0,0,4.281,4.28h8.561V45.659h2.854V15.739a1.428,1.428,0,0,0-.365-.953L110.72.474A1.427,1.427,0,0,0,109.659,0H68.28A4.281,4.281,0,0,0,64,4.28v15.7h2.854Zm44.232,8.561V5.158l8.177,9.11h-6.75A1.427,1.427,0,0,1,111.085,12.841Zm0,0" transform="translate(-52.585)"/><path class="a" d="M112,48h2.854v2.854H112Zm0,0" transform="translate(-92.586 -39.439)"/><path class="a" d="M144,48h11.415v2.854H144Zm0,0" transform="translate(-119.123 -39.439)"/><path class="a" d="M112,80h17.122v2.854H112Zm0,0" transform="translate(-92.703 -66.133)"/><path class="a" d="M112,200h28.537v2.854H112Zm0,0" transform="translate(-92.839 -165.333)"/><path class="a" d="M112,248h28.537v2.854H112Zm0,0" transform="translate(-92.839 -205.012)"/><path class="a" d="M112,296h19.976v2.854H112Zm0,0" transform="translate(-92.733 -244.692)"/><path class="a" d="M112,344h11.415v2.854H112Zm0,0" transform="translate(-92.651 -284.372)"/></svg>