<svg xmlns="http://www.w3.org/2000/svg" width="109.999" height="101.405" viewBox="0 0 109.999 101.405"><defs><style>.a{fill:#a4fcc4;}.b{fill:#020288;}</style></defs><g transform="translate(0 -20)"><g transform="translate(8.706 44.583)"><g transform="translate(0 0)"><circle class="a" cx="11.692" cy="11.692" r="11.692" transform="translate(0 21.607) rotate(-67.486)"/></g><g transform="translate(10.753 11.308)"><path class="b" d="M94.736,194.254a2.142,2.142,0,0,1-1.058-.279l-2.012-1.14a2.148,2.148,0,1,1,2.117-3.739l.59.334,1.746-1.746a2.148,2.148,0,1,1,3.038,3.038l-2.9,2.9A2.148,2.148,0,0,1,94.736,194.254Z" transform="translate(-90.576 -187.057)"/></g><g transform="translate(3.576 39.625)"><circle class="a" cx="11.692" cy="11.692" r="11.692"/><g transform="translate(7.177 7.729)"><path class="b" d="M94.736,362.035a2.142,2.142,0,0,1-1.058-.279l-2.012-1.14a2.148,2.148,0,1,1,2.117-3.739l.59.334,1.746-1.746a2.149,2.149,0,0,1,3.038,3.039l-2.9,2.9A2.149,2.149,0,0,1,94.736,362.035Z" transform="translate(-90.576 -354.837)"/></g></g></g><g transform="translate(0 20)"><path class="b" d="M423.787,20h-12.42a5.16,5.16,0,0,0-5.154,5.154v78.538a2.121,2.121,0,0,0,.315,1.12l9.2,15.539a2.149,2.149,0,0,0,3.7,0l9.2-15.539a2.869,2.869,0,0,0,.315-1.12V25.154A5.16,5.16,0,0,0,423.787,20ZM410.51,101.544V37.832h4.919v63.712Zm9.215-63.712h4.919v63.712h-4.919ZM410.51,25.154a.858.858,0,0,1,.857-.857h12.42a.858.858,0,0,1,.857.857v8.381H410.51Zm7.067,89.886-5.447-9.2h10.893Z" transform="translate(-318.942 -20)"/><path class="b" d="M221.431,210.4H195.1a2.148,2.148,0,0,0,0,4.3h26.336a2.148,2.148,0,0,0,0-4.3Z" transform="translate(-151.494 -169.491)"/><path class="b" d="M195.1,170.52a2.148,2.148,0,1,0,0,4.3h17.12a2.148,2.148,0,1,0,0-4.3Z" transform="translate(-151.494 -138.182)"/><path class="b" d="M221.431,378.179H195.1a2.148,2.148,0,0,0,0,4.3h26.336a2.148,2.148,0,0,0,0-4.3Z" transform="translate(-151.494 -301.227)"/><path class="b" d="M195.1,342.6h17.12a2.148,2.148,0,1,0,0-4.3H195.1a2.148,2.148,0,1,0,0,4.3Z" transform="translate(-151.494 -269.918)"/><path class="b" d="M76.489,20.5H5.731A5.737,5.737,0,0,0,0,26.231v89.728a5.737,5.737,0,0,0,5.731,5.731H76.489a5.737,5.737,0,0,0,5.731-5.731V26.231A5.737,5.737,0,0,0,76.489,20.5Zm1.434,95.459a1.436,1.436,0,0,1-1.434,1.434H5.731A1.436,1.436,0,0,1,4.3,115.959V26.231A1.436,1.436,0,0,1,5.731,24.8H76.489a1.436,1.436,0,0,1,1.434,1.434Z" transform="translate(0 -20.393)"/><path class="b" d="M127.588,90.8a2.149,2.149,0,0,0-2.148-2.148H81.7a2.148,2.148,0,0,0,0,4.3H125.44A2.148,2.148,0,0,0,127.588,90.8Z" transform="translate(-62.459 -73.9)"/></g></g></svg>