<svg xmlns="http://www.w3.org/2000/svg" width="29.278" height="24" viewBox="0 0 29.278 24"><defs><style>.a{fill:#fff;}</style></defs><path class="a" d="M28.058,125.149H1.22a1.241,1.241,0,0,1,0-2.481H28.058a1.241,1.241,0,0,1,0,2.481Zm0,0" transform="translate(0 -111.908)"/><path class="a" d="M28.058,2.481H1.22A1.231,1.231,0,0,1,0,1.241,1.231,1.231,0,0,1,1.22,0H28.058a1.231,1.231,0,0,1,1.22,1.241A1.231,1.231,0,0,1,28.058,2.481Zm0,0"/><path class="a" d="M28.058,247.813H1.22a1.241,1.241,0,0,1,0-2.481H28.058a1.241,1.241,0,0,1,0,2.481Zm0,0" transform="translate(0 -223.813)"/></svg>