<svg xmlns="http://www.w3.org/2000/svg" xmlns:xlink="http://www.w3.org/1999/xlink" width="71.651" height="78.025" viewBox="0 0 71.651 78.025"><defs><style>.a{fill:none;}.b{clip-path:url(#a);}.c{fill:#ffd15c;}.d{fill:#6f93f4;}.e{fill:#f8b64c;}.f{fill:#fff;}</style><clipPath id="a"><rect class="a" width="71.651" height="78.025"/></clipPath></defs><g class="b" transform="translate(0 0)"><path class="c" d="M62.08,0A30.98,30.98,0,1,1,31.1,30.98,30.979,30.979,0,0,1,62.08,0" transform="translate(-26.323)"/><path class="d" d="M10.659,319.7,0,338.177l12.441-.66,5.652,11.1,9.861-17.095A30.949,30.949,0,0,1,10.659,319.7" transform="translate(0 -270.596)"/><path class="d" d="M301.548,319.1A30.964,30.964,0,0,1,284.3,330.988l9.891,17.126,5.652-11.1,12.441.66Z" transform="translate(-240.634 -270.089)"/><path class="e" d="M109.055,55.5A22.455,22.455,0,1,1,86.6,77.955,22.455,22.455,0,0,1,109.055,55.5" transform="translate(-73.299 -46.976)"/><path class="f" d="M161.408,116.319a1.167,1.167,0,0,0-.645-2l-8.862-1.29a1.152,1.152,0,0,1-.876-.645l-3.963-8.033a1.167,1.167,0,0,0-2.1,0l-3.947,8.033a1.213,1.213,0,0,1-.875.645l-8.862,1.29a1.167,1.167,0,0,0-.645,2l6.4,6.251a1.183,1.183,0,0,1,.338,1.029l-1.505,8.816a1.167,1.167,0,0,0,1.7,1.229l7.925-4.162a1.152,1.152,0,0,1,1.091,0l7.925,4.162a1.183,1.183,0,0,0,1.7-1.229L154.7,123.6a1.152,1.152,0,0,1,.338-1.029Z" transform="translate(-110.262 -87.766)"/></g></svg>