<svg xmlns="http://www.w3.org/2000/svg" width="122" height="102.899" viewBox="0 0 122 102.899"><defs><style>.a{fill:#6f93f4;}</style></defs><g transform="translate(1 -40.081)"><path class="a" d="M114.482,40.081H7.518A7.526,7.526,0,0,0,0,47.6v72.584A7.526,7.526,0,0,0,7.518,127.7H43.695l-1.463,11.707H36.169a1.787,1.787,0,0,0,0,3.574H85.831a1.787,1.787,0,0,0,0-3.574H79.769L78.305,127.7h36.177A7.526,7.526,0,0,0,122,120.182V47.6A7.526,7.526,0,0,0,114.482,40.081ZM76.166,139.406H45.834L47.3,127.7h6.577l.645,2.581a6.68,6.68,0,0,0,12.961,0l.645-2.581H74.7ZM57.559,127.7h6.883l-.428,1.714a3.106,3.106,0,0,1-6.026,0Zm60.867-7.517a3.948,3.948,0,0,1-3.943,3.943H7.518a3.948,3.948,0,0,1-3.943-3.943V47.6a3.948,3.948,0,0,1,3.943-3.943H114.482a3.948,3.948,0,0,1,3.943,3.943v72.584Z" transform="translate(-1)"/><path class="a" d="M37.672,140.909H35.638V75.72h89.9a1.787,1.787,0,1,0,0-3.574H33.851a1.787,1.787,0,0,0-1.787,1.787V142.7a1.787,1.787,0,0,0,1.787,1.787h3.82a1.787,1.787,0,0,0,0-3.574Z" transform="translate(-25.424 -24.425)"/><path class="a" d="M173.634,72.146h-3.82a1.787,1.787,0,0,0,0,3.574h2.033v65.189h-89.9a1.787,1.787,0,0,0,0,3.574h91.684a1.787,1.787,0,0,0,1.787-1.787V73.933A1.787,1.787,0,0,0,173.634,72.146Z" transform="translate(-62.061 -24.425)"/><path class="a" d="M152.8,153.846a5.609,5.609,0,0,0,1.4.178,5.767,5.767,0,0,0,.668-.039l25.112-2.954a7.5,7.5,0,0,0,6.493-5.992l3-15.02a1.787,1.787,0,0,0-1.671-2.136l-42.022-1.91c-.033,0-.065,0-.1,0a3.7,3.7,0,0,0-1.486-2l-5.146-3.431a1.787,1.787,0,0,0-1.982,2.974l5.146,3.43a.124.124,0,0,1,.05.069l6.555,22.942a5.627,5.627,0,0,0,.973,1.913l-2.4,4.8a3.673,3.673,0,0,0,.162,3.6,3.711,3.711,0,0,0,.917,1.009,5.607,5.607,0,1,0,10.092.745h16.293a5.607,5.607,0,1,0,10.243-.464,1.785,1.785,0,0,0-1.2-3.11H150.7a.123.123,0,0,1-.11-.178Zm1.648-3.411a2.024,2.024,0,0,1-2.192-1.461l-2.277-7.968h5.712l1.5,9.106Zm14.05-1.653v-7.776h6.122l-.645,7.132Zm0-11.35v-6.848l7.036.32-.591,6.528Zm-3.574,0h-6.2l-1.211-7.347,7.411.337Zm0,3.574v8.2l-4.178.492-1.432-8.688h5.61Zm14.636,6.475-1.958.23.607-6.7h5.423l-.666,3.332A3.934,3.934,0,0,1,179.563,147.481Zm4.787-10.049h-5.814l.576-6.366,6.453.293Zm-30.484-7.513,1.239,7.513h-6.144l-2.24-7.838Zm1.51,34.132a2.033,2.033,0,1,1-2.033-2.033A2.035,2.035,0,0,1,155.377,164.05Zm24.708,2.033a2.033,2.033,0,1,1,2.033-2.033A2.035,2.035,0,0,1,180.085,166.083Z" transform="translate(-104.804 -61.059)"/></g></svg>