<svg xmlns="http://www.w3.org/2000/svg" width="60.53" height="37.479" viewBox="0 0 60.53 37.479"><defs><style>.a{fill:#ed4c14;}.b{fill:#dc0118;}.c{fill:#fa8a06;}</style></defs><g transform="translate(30.265 18.74)"><g transform="translate(-30.265 -18.74)"><rect class="a" width="16.42" height="29.478" transform="translate(22.046 4.007)"/><path class="b" d="M23.218,18.757A18.729,18.729,0,0,1,30.361,4.035a18.729,18.729,0,1,0,0,29.487,18.729,18.729,0,0,1-7.143-14.765" transform="translate(-0.083 -0.028)"/><path class="c" d="M134.748,68.74v-.61h.261V68h-.61v.131h.261v.61Zm1.22,0V68h-.174l-.218.479L135.358,68h-.174v.74h.131v-.566l.218.479h.131l.218-.479v.566Z" transform="translate(-75.898 -38.383)"/><path class="c" d="M81.186,0A18.685,18.685,0,0,0,69.6,4.007a18.729,18.729,0,0,1,0,29.487A18.729,18.729,0,1,0,81.186,0" transform="translate(-39.322 0)"/></g></g></svg>