<svg xmlns="http://www.w3.org/2000/svg" width="113.708" height="29.057" viewBox="0 0 113.708 29.057"><defs><style>.a,.b{fill:#fff;}.b{opacity:0.5;}</style></defs><path class="a" d="M356.746,33.6h-6.136a1.2,1.2,0,0,0-.9.722L347.18,50.2a.474.474,0,0,0,.541.541h3.249a.474.474,0,0,0,.541-.541l.722-4.512a.826.826,0,0,1,.9-.722h1.985q6.227,0,7.039-5.956a4.731,4.731,0,0,0-.722-3.971,7.279,7.279,0,0,0-4.693-1.444m.722,5.956c-.361,2.166-1.985,2.166-3.61,2.166h-1.083l.722-4.151c0-.18.18-.361.541-.361h.361c1.083,0,2.166,0,2.707.722.361.18.361.722.361,1.624" transform="translate(-268.852 -26.02)"/><g transform="translate(34.105 7.58)"><path class="a" d="M160.746,33.6h-6.136a1.2,1.2,0,0,0-.9.722L151.18,50.2a.474.474,0,0,0,.541.541h2.888a1.2,1.2,0,0,0,.9-.722l.722-4.332a.826.826,0,0,1,.9-.722h1.985q6.227,0,7.039-5.956a4.731,4.731,0,0,0-.722-3.971,6.937,6.937,0,0,0-4.692-1.444m.722,5.956c-.361,2.166-1.985,2.166-3.61,2.166h-.9l.722-4.151c0-.18.18-.361.541-.361h.361c1.083,0,2.166,0,2.707.722a1.933,1.933,0,0,1,.18,1.624" transform="translate(-151.175 -33.6)"/><path class="a" d="M227.887,57.961H225c-.18,0-.541.18-.541.361l-.18.9-.18-.361a4.245,4.245,0,0,0-3.429-1.263,6.935,6.935,0,0,0-6.678,5.956,5.369,5.369,0,0,0,1.083,4.512,4.548,4.548,0,0,0,3.79,1.444,5.769,5.769,0,0,0,4.151-1.624l-.181.9a.474.474,0,0,0,.541.541h2.707a1.2,1.2,0,0,0,.9-.722L228.609,58.5c-.181-.18-.541-.541-.722-.541m-4.151,5.775a3.491,3.491,0,0,1-3.429,2.888,2.888,2.888,0,0,1-1.985-.722,3.849,3.849,0,0,1-.541-2.166,3.219,3.219,0,0,1,5.234-2.166,2.877,2.877,0,0,1,.722,2.166" transform="translate(-199.726 -52.186)"/></g><path class="a" d="M423.087,57.961H420.2c-.181,0-.541.18-.541.361l-.181.9-.18-.361a4.245,4.245,0,0,0-3.429-1.263,6.935,6.935,0,0,0-6.678,5.956,5.37,5.37,0,0,0,1.083,4.512,4.548,4.548,0,0,0,3.79,1.444,5.769,5.769,0,0,0,4.151-1.624l-.18.9a.474.474,0,0,0,.541.541h2.707a1.2,1.2,0,0,0,.9-.722L423.809,58.5c-.18-.18-.361-.541-.722-.541m-4.151,5.775a3.491,3.491,0,0,1-3.429,2.888,2.887,2.887,0,0,1-1.985-.722,3.849,3.849,0,0,1-.542-2.166,3.219,3.219,0,0,1,5.234-2.166,2.076,2.076,0,0,1,.722,2.166" transform="translate(-316.784 -44.605)"/><path class="a" d="M297.9,59.2h-3.068a.947.947,0,0,0-.722.361L290.136,65.7l-1.8-5.775a.834.834,0,0,0-.9-.541h-2.888c-.361,0-.541.361-.541.722l3.249,9.565L284.18,74c-.18.361,0,.9.361.9h2.888a.948.948,0,0,0,.722-.361l9.926-14.258c.542-.541.181-1.083-.18-1.083" transform="translate(-219.93 -45.844)"/><path class="a" d="M477.707,34.518,475.18,50.761a.474.474,0,0,0,.542.541h2.527a1.2,1.2,0,0,0,.9-.722L481.678,34.7a.474.474,0,0,0-.541-.541h-2.888c-.18-.18-.361,0-.541.361" transform="translate(-367.975 -26.396)"/><path class="a" d="M20.755,2.166C19.492.722,17.146,0,13.9,0H4.873A1.548,1.548,0,0,0,3.61,1.083L0,24.726a.826.826,0,0,0,.722.9H6.317l1.444-8.844v.361a1.548,1.548,0,0,1,1.263-1.083h2.707c5.234,0,9.2-2.166,10.468-8.122V7.4h0c.18-2.346-.18-3.79-1.444-5.234" transform="translate(0 0)"/><path class="b" d="M41.83,32.8h0v.541c-1.263,6.136-5.234,8.122-10.468,8.122H28.655a1.548,1.548,0,0,0-1.263,1.083l-1.8,11.009a.654.654,0,0,0,.722.722H31a1.011,1.011,0,0,0,1.083-.9v-.18l.9-5.595v-.361a1.011,1.011,0,0,1,1.083-.9h.722c4.512,0,8.122-1.8,9.024-7.219.361-2.166.18-4.151-.9-5.414a1.85,1.85,0,0,0-1.083-.9" transform="translate(-19.811 -25.4)"/><path class="b" d="M47.395,28.523c-.18,0-.361-.18-.541-.18a.654.654,0,0,1-.541-.18,9.534,9.534,0,0,0-2.346-.18H36.927a.654.654,0,0,0-.541.18.993.993,0,0,0-.541.9L34.4,38.449v.361a1.548,1.548,0,0,1,1.263-1.083h2.707c5.234,0,9.2-2.166,10.468-8.122a.654.654,0,0,1,.18-.541c-.361-.18-.541-.361-.9-.361s-.541-.18-.722-.18" transform="translate(-26.639 -21.664)"/></svg>