<svg xmlns="http://www.w3.org/2000/svg" xmlns:xlink="http://www.w3.org/1999/xlink" width="71.359" height="29.693" viewBox="0 0 71.359 29.693"><defs><style>.a{fill:none;}.b{clip-path:url(#a);}.c{fill:#fff;}</style><clipPath id="a"><rect class="a" width="71.359" height="29.693"/></clipPath></defs><g class="b"><path class="c" d="M5.017,11.638c0-.767.641-1.073,1.686-1.073a11.052,11.052,0,0,1,4.92,1.268V7.178A13.073,13.073,0,0,0,6.7,6.272C2.676,6.258,0,8.362,0,11.875c0,5.477,7.526,4.6,7.526,6.955,0,.906-.794,1.213-1.909,1.213A12.2,12.2,0,0,1,.209,18.453v4.711a13.742,13.742,0,0,0,5.408,1.129c4.125,0,6.955-2.035,6.955-5.589,0-5.9-7.554-4.85-7.554-7.066M18.411,2.3,13.575,3.331V19.206A4.979,4.979,0,0,0,18.7,24.293a7.572,7.572,0,0,0,3.47-.655V19.624c-.641.251-3.763,1.171-3.763-1.77V10.829h3.763V6.606H18.4Zm9.909,5.77-.307-1.463H23.721V23.944h4.962V12.2a3.471,3.471,0,0,1,3.763-1.031V6.606A3.375,3.375,0,0,0,28.321,8.07m5.338-1.463h4.976V23.944H33.658Zm0-1.505,4.976-1.073V0L33.658,1.045ZM48.976,6.272A5.6,5.6,0,0,0,45.1,7.8L44.85,6.578H40.474V29.686l4.962-1.045v-5.6a5.59,5.59,0,0,0,3.512,1.254c3.554,0,6.774-2.857,6.774-9.143-.014-5.742-3.289-8.878-6.76-8.878M47.777,19.93A2.964,2.964,0,0,1,45.435,19V11.638a2.957,2.957,0,0,1,2.355-.976c1.8,0,3.052,2.021,3.052,4.613s-1.226,4.641-3.052,4.641m23.568-4.571c0-5.073-2.453-9.073-7.15-9.073s-7.568,4-7.568,9.045c0,5.965,3.373,8.976,8.209,8.976a11.086,11.086,0,0,0,5.491-1.282V19.024a10.608,10.608,0,0,1-4.85,1.087c-1.951,0-3.624-.669-3.847-3.01h9.686c0-.251.042-1.282.042-1.77m-9.812-1.868c0-2.244,1.366-3.178,2.62-3.178s2.495.934,2.495,3.178Z"/></g></svg>