<svg xmlns="http://www.w3.org/2000/svg" width="61.348" height="19.584" viewBox="0 0 61.348 19.584"><defs><style>.a{fill:#fff;}.b{fill:#02134e;}</style></defs><g transform="translate(0 0)"><path class="a" d="M136.4,155.091l4.4,16.361h5.115l7.947-18.952h-5.179l-5,12.866L141.615,155.3l-5.215-.208Z" transform="translate(-131.139 -152.157)"/><path class="a" d="M317.852,151.7,314.8,170.724h4.821l3.126-19.024Z" transform="translate(-293.187 -151.429)"/><path class="a" d="M417.787,153.521l.706-3.982a14.251,14.251,0,0,0-4.684-.84c-2.557,0-8.093,1.607-8.093,6.293s6.884,4.894,6.884,7.485-6.178,2.311-8.02.632l-.779,4.126a17.506,17.506,0,0,0,5.252,1.047c2.484,0,8.662-.56,8.662-6.645,0-5.318-6.884-4.271-6.884-7.485C410.83,154.154,411.536,150.939,417.787,153.521Z" transform="translate(-374.029 -148.7)"/><path class="a" d="M552.5,172.907h5.326l.926-2.727h6.535l.541,2.7h4.62L566.2,154.1H561.95a3,3,0,0,0-2.273,2.032c-.715,1.86-7.168,16.785-7.168,16.785Z" transform="translate(-509.099 -153.612)"/><path class="b" d="M640.526,218.388H636.2l2.695-6.988,1.632,6.988Z" transform="translate(-585.127 -205.739)"/><path class="a" d="M91,162.73l-1.522-7.44s-.2-2.79-2.227-2.79H79v.388a17.26,17.26,0,0,1,11.989,9.842Z" transform="translate(-79 -152.157)"/></g></svg>