<svg xmlns="http://www.w3.org/2000/svg" width="19.169" height="19.908" viewBox="0 0 19.169 19.908"><defs><style>.a{opacity:0.503;}.b{fill:#01164e;}</style></defs><g class="a" transform="translate(-9.497)"><g transform="translate(25.686 2.357)"><path class="b" d="M426.762,60.988a.467.467,0,0,0-.026-.085.472.472,0,0,0-.042-.079.444.444,0,0,0-.126-.126.487.487,0,0,0-.079-.042.455.455,0,0,0-.264-.026.464.464,0,0,0-.085.026.485.485,0,0,0-.079.042.462.462,0,0,0-.069.057.457.457,0,0,0-.057.069.465.465,0,0,0-.042.079.458.458,0,0,0-.026.085.448.448,0,0,0-.009.089.458.458,0,0,0,.009.09.456.456,0,0,0,.068.164.461.461,0,0,0,.057.07.459.459,0,0,0,.148.1.459.459,0,0,0,.085.026.464.464,0,0,0,.179,0,.462.462,0,0,0,.085-.026.458.458,0,0,0,.148-.1.461.461,0,0,0,.134-.323A.454.454,0,0,0,426.762,60.988Z" transform="translate(-425.858 -60.62)"/></g><g transform="translate(23.618)"><g transform="translate(0)"><path class="b" d="M377.725,15.481a2.791,2.791,0,0,0-.777-1.813,2.143,2.143,0,0,0,.41-1.262c0-.052,0-.1-.006-.155a27.367,27.367,0,0,0,.325-4.42c0-.231-.01-.53-.015-.673l0-.061a19.718,19.718,0,0,0-.683-5.008C376.546.7,375.949,0,375.2,0s-1.342.7-1.774,2.089a19.716,19.716,0,0,0-.683,5.008l0,.061c0,.144-.015.443-.015.673a27.364,27.364,0,0,0,.325,4.42c0,.051-.006.1-.006.155a2.142,2.142,0,0,0,.4,1.249,2.777,2.777,0,0,0-.767,2.063,2.592,2.592,0,0,0,.95,1.885,1.178,1.178,0,0,1,.434,1.473.623.623,0,0,0,.156.7.542.542,0,0,0,.356.128.888.888,0,0,0,.393-.1C375.829,19.379,377.808,17.251,377.725,15.481Zm-4.067-8.293,0-.063C373.8,2.477,374.779.913,375.2.913s1.4,1.564,1.544,6.212l0,.063c0,.139.014.428.014.643,0,1.046-.047,2.045-.138,2.953a2.146,2.146,0,0,0-.966-.484V4.314a.457.457,0,0,0-.913,0V10.3a2.147,2.147,0,0,0-.966.484c-.091-.908-.138-1.907-.138-2.953C373.644,7.616,373.653,7.327,373.658,7.188Zm2.788,5.218a1.24,1.24,0,0,1-.454.959c-.021.017-.042.033-.064.049l-.023.016q-.036.024-.073.046l-.019.011c-.027.015-.054.03-.083.043l-.01,0a1.247,1.247,0,0,1-.3.093l-.009,0q-.049.008-.1.013H375.3c-.033,0-.067,0-.1,0h0c-.034,0-.068,0-.1,0h-.012q-.05,0-.1-.013h-.008a1.244,1.244,0,0,1-.305-.1h0c-.03-.014-.06-.03-.089-.047l-.012-.007c-.027-.016-.053-.033-.079-.051l-.016-.012q-.037-.027-.072-.056a1.241,1.241,0,0,1,.605-2.178h0l.053-.007h.01l.049,0h.014l.062,0h0l.062,0h.013l.05,0h.009l.054.007h0A1.244,1.244,0,0,1,376.445,12.406Zm-.575,5.321a6.771,6.771,0,0,1-.8.879,2.055,2.055,0,0,0-.8-1.654,1.729,1.729,0,0,1-.678-1.276,1.854,1.854,0,0,1,.529-1.4l.021.011.087.047.023.012a2.146,2.146,0,0,0,.247.1l.014,0q.063.021.127.039h0a2.136,2.136,0,0,0,.265.054l.027,0,.1.01.033,0c.043,0,.087,0,.131,0h0c.043,0,.086,0,.129,0l.032,0,.1-.01.028,0a2.138,2.138,0,0,0,.387-.09l.015,0q.057-.02.113-.042l.013-.005c.041-.017.081-.034.12-.054l.018-.009.089-.047.02-.01a1.87,1.87,0,0,1,.544,1.246A3.768,3.768,0,0,1,375.87,17.726Z" transform="translate(-372.68)"/></g></g><g transform="translate(9.497 1.722)"><g transform="translate(0)"><path class="b" d="M21.648,52.524a3.17,3.17,0,0,1,.6-1.875,3.766,3.766,0,0,0,.634-2.979,3.484,3.484,0,0,0-1.652-2.329,7.626,7.626,0,0,0-3.852-1.049h0A8.074,8.074,0,0,0,9.5,52.508a8.339,8.339,0,0,0,2.426,5.957,7.627,7.627,0,0,0,9.3,1.248,3.492,3.492,0,0,0,1.66-2.334,3.763,3.763,0,0,0-.633-2.979A3.169,3.169,0,0,1,21.648,52.524Zm.341,4.666a2.59,2.59,0,0,1-1.227,1.734,6.714,6.714,0,0,1-8.192-1.1,7.432,7.432,0,0,1-2.159-5.31,7.16,7.16,0,0,1,6.968-7.3h0a6.713,6.713,0,0,1,3.391.923,2.582,2.582,0,0,1,1.22,1.728,2.852,2.852,0,0,1-.48,2.256,4.137,4.137,0,0,0,0,4.822A2.848,2.848,0,0,1,21.988,57.191Z" transform="translate(-9.497 -44.293)"/></g></g><g transform="translate(18.908 7.774)"><g transform="translate(0)"><path class="b" d="M253.366,204.929a4.758,4.758,0,0,1-.906-2.813,4.824,4.824,0,0,1,.261-1.574.457.457,0,1,0-.863-.3,5.734,5.734,0,0,0-.31,1.872,5.665,5.665,0,0,0,1.08,3.35.457.457,0,0,0,.739-.536Z" transform="translate(-251.547 -199.936)"/></g></g><g transform="translate(19.901 6.415)"><path class="b" d="M277.876,165.138l-.008-.008a.457.457,0,1,0-.647.645l.008.008a.457.457,0,0,0,.647-.645Z" transform="translate(-277.088 -164.995)"/></g><g transform="translate(10.912 7.908)"><g transform="translate(0)"><path class="b" d="M47.936,203.392a2.045,2.045,0,1,0,2.045,2.045A2.048,2.048,0,0,0,47.936,203.392Zm0,3.178a1.132,1.132,0,1,1,1.132-1.132A1.133,1.133,0,0,1,47.936,206.57Z" transform="translate(-45.891 -203.392)"/></g></g><g transform="translate(13.897 12.239)"><path class="b" d="M126.157,315.375a2.045,2.045,0,1,0,0,2.893A2.048,2.048,0,0,0,126.157,315.375Zm-.646,2.247a1.132,1.132,0,1,1,0-1.6A1.125,1.125,0,0,1,125.511,317.622Z" transform="translate(-122.665 -314.777)"/></g><g transform="translate(13.898 3.579)"><path class="b" d="M126.18,92.656a2.044,2.044,0,1,0,0,2.893A2.048,2.048,0,0,0,126.18,92.656Zm-.646,2.247a1.132,1.132,0,1,1,0-1.6A1.133,1.133,0,0,1,125.535,94.9Z" transform="translate(-122.69 -92.058)"/></g></g></svg>