<svg xmlns="http://www.w3.org/2000/svg" width="23.635" height="23.635" viewBox="0 0 23.635 23.635"><defs><style>.a{opacity:0.503;}.b{fill:#01164e;}</style></defs><g class="a"><path class="b" d="M106.122,85.438a1.19,1.19,0,1,0-.95-.475l-1.953,2.729a1.185,1.185,0,0,0-1.179.26l-1.3-.738a1.188,1.188,0,1,0-2.323,0l-1.3.738a1.187,1.187,0,1,0,.353.62l1.3-.738a1.185,1.185,0,0,0,1.618,0l1.3.738a1.188,1.188,0,1,0,2.111-.464l1.953-2.729A1.184,1.184,0,0,0,106.122,85.438Zm0-1.664a.475.475,0,1,1-.475.475A.476.476,0,0,1,106.122,83.774ZM96.306,89.3a.475.475,0,1,1,.475-.475A.476.476,0,0,1,96.306,89.3Zm3.272-1.858a.475.475,0,1,1,.475-.475A.476.476,0,0,1,99.578,87.438ZM102.85,89.3a.475.475,0,1,1,.475-.475A.476.476,0,0,1,102.85,89.3Z" transform="translate(-90.858 -79.442)"/><path class="b" d="M19.907,56.071H1.008a.3.3,0,0,1-.3-.294V41.121a.3.3,0,0,1,.3-.294H2.689a.355.355,0,1,0,0-.71H1.008a1.008,1.008,0,0,0-1.008,1V55.776a1.008,1.008,0,0,0,1.008,1H3.467v.782a.81.81,0,0,0,.811.808H7.846l-1.68,3.268a.356.356,0,0,0,.635.324L8.647,58.37h3.942l1.846,3.592a.356.356,0,0,0,.635-.324l-1.68-3.268h3.569a.81.81,0,0,0,.811-.808v-.782h2.138a.355.355,0,1,0,0-.71Zm-2.851,1.492a.1.1,0,0,1-.1.1H4.277a.1.1,0,0,1-.1-.1v-.782H17.056Z" transform="translate(0 -38.521)"/><path class="b" d="M79.42,8.866H95.172a.293.293,0,0,1,.289.3v3.39a.349.349,0,1,0,.7,0V9.162a1,1,0,0,0-.986-1.008h-7.46v-.7a.886.886,0,0,0-.875-.894h-2.12a.886.886,0,0,0-.875.894v.7H79.42a.357.357,0,0,0,0,.713Zm5.12-1.414a.18.18,0,0,1,.177-.181h2.12a.18.18,0,0,1,.177.181v.7H84.54v-.7Z" transform="translate(-75.625 -6.558)"/><path class="b" d="M97.759,267.576a.357.357,0,0,0-.357.357v3.15a.357.357,0,0,0,.357.357H99.2a.357.357,0,0,0,.356-.357v-3.15a.357.357,0,0,0-.356-.357Zm1.09,3.15h-.733v-2.437h.733Z" transform="translate(-92.919 -255.218)"/><path class="b" d="M166.594,229.248a.356.356,0,0,0-.357.357v4.972a.356.356,0,0,0,.357.357h1.446a.356.356,0,0,0,.357-.357V229.6a.356.356,0,0,0-.357-.357Zm1.09,4.972h-.733v-4.259h.733Z" transform="translate(-158.585 -218.709)"/><path class="b" d="M235.43,267.576a.357.357,0,0,0-.357.357v3.15a.357.357,0,0,0,.357.357h1.446a.357.357,0,0,0,.356-.357v-3.15a.356.356,0,0,0-.356-.357Zm1.09,3.15h-.733v-2.437h.733Z" transform="translate(-224.253 -255.218)"/><path class="b" d="M304.266,311.832a.356.356,0,0,0-.357.357v1.047a.356.356,0,0,0,.357.357h1.446a.357.357,0,1,0,0-.713h-1.09v-.69A.356.356,0,0,0,304.266,311.832Z" transform="translate(-289.921 -297.373)"/><path class="b" d="M305.641,155.861l-2.045-3.543a4.662,4.662,0,1,0-4.61,1.316,4.685,4.685,0,0,0,1.214.161,4.6,4.6,0,0,0,1.049-.121l2.045,3.543a1.355,1.355,0,1,0,2.347-1.355Zm-6.471-2.916a3.947,3.947,0,1,1,2.995-.394A3.921,3.921,0,0,1,299.17,152.945Zm5.618,4.149a.643.643,0,0,1-.877-.235l-1.967-3.408a4.679,4.679,0,0,0,1.112-.643l1.968,3.409a.642.642,0,0,1-.235.877Z" transform="translate(-282.188 -137.969)"/><path class="b" d="M328.919,175.632a3.374,3.374,0,0,0-.169-2.444.356.356,0,1,0-.645.3,2.67,2.67,0,1,1-.8-.995.356.356,0,1,0,.43-.569,3.385,3.385,0,1,0,1.189,3.7Z" transform="translate(-307.682 -163.45)"/></g></svg>