<svg xmlns="http://www.w3.org/2000/svg" width="23.452" height="23.452" viewBox="0 0 23.452 23.452"><defs><style>.a{opacity:0.503;}.b{fill:#01164e;}</style></defs><g class="a"><path class="b" d="M246.651,180.822h-2.813v-3.214a1.607,1.607,0,0,0-3.214,0v4.71l-.466-.555a1.607,1.607,0,1,0-2.461,2.062l3.021,3.6a2.009,2.009,0,0,0,1.112,1.259v2.179a.4.4,0,0,0,.4.4h5.625a.4.4,0,0,0,.4-.4v-2.179a2.009,2.009,0,0,0,1.205-1.839v-3.214A2.816,2.816,0,0,0,246.651,180.822Zm-8.525,1.9a.8.8,0,0,1,.285-.544.824.824,0,0,1,1.13.1l1.083,1.29v2.5l-2.312-2.758A.794.794,0,0,1,238.126,182.722Zm9.328,7.743h-4.822v-1.607h4.822Zm1.205-3.616a1.205,1.205,0,0,1-1.205,1.205h-4.822a1.205,1.205,0,0,1-1.205-1.205v-9.241a.8.8,0,1,1,1.607,0v5.223h.8v-1.205h1.205v1.205h.8v-1.205h.8a2,2,0,0,1,.4.04v1.567h.8v-1.195a2,2,0,0,1,.8,1.6Zm0,0" transform="translate(-226.011 -167.816)"/><path class="b" d="M14.212,130.382l2.009-.8a.4.4,0,0,0,0-.747l-2.009-.8a.4.4,0,0,0-.149-.028H1.205a1.205,1.205,0,0,0,0,2.411H14.063A.4.4,0,0,0,14.212,130.382Zm-.953-.775H2.411v-.8H13.259Zm1.731-.4-.927.371v-.742Zm-14.187,0a.4.4,0,0,1,.4-.4h.4v.8h-.4A.4.4,0,0,1,.8,129.205Zm0,0" transform="translate(0 -121.766)"/><path class="b" d="M64.8,203.652V192H64v11.652a1.205,1.205,0,0,0,1.205,1.205h11.25v-.8H65.205A.4.4,0,0,1,64.8,203.652Zm0,0" transform="translate(-60.786 -183.012)"/><path class="b" d="M64.8,1.205a.4.4,0,0,1,.4-.4h11.25V3.616a1.205,1.205,0,0,0,1.205,1.205h2.411v8.036h.8V4.432a.4.4,0,0,0-.1-.268L77.156.133a.4.4,0,0,0-.3-.133H65.205A1.205,1.205,0,0,0,64,1.205v4.42h.8ZM77.259,3.616V1.453l2.3,2.565h-1.9A.4.4,0,0,1,77.259,3.616Zm0,0" transform="translate(-60.786)"/><path class="b" d="M112,48h.8v.8H112Zm0,0" transform="translate(-106.533 -45.589)"/><path class="b" d="M144,48h3.214v.8H144Zm0,0" transform="translate(-136.995 -45.589)"/><path class="b" d="M112,80h4.822v.8H112Zm0,0" transform="translate(-106.566 -76.095)"/><path class="b" d="M112,200h8.036v.8H112Zm0,0" transform="translate(-106.604 -190.238)"/><path class="b" d="M112,248h8.036v.8H112Zm0,0" transform="translate(-106.604 -235.895)"/><path class="b" d="M112,296h5.625v.8H112Zm0,0" transform="translate(-106.574 -281.552)"/><path class="b" d="M112,344h3.214v.8H112Zm0,0" transform="translate(-106.551 -327.209)"/></g></svg>