<svg width="52" height="52" viewBox="0 0 52 52" fill="none" xmlns="http://www.w3.org/2000/svg">
<path d="M39.4 51.307H12.41C9.25179 51.307 6.22289 50.0526 3.98942 47.8197C1.75595 45.5868 0.500796 42.5582 0.5 39.4L0.5 12.41C0.5 9.25127 1.7548 6.22192 3.98836 3.98836C6.22192 1.7548 9.25127 0.5 12.41 0.5L39.4 0.5C42.5587 0.5 45.5881 1.7548 47.8216 3.98836C50.0552 6.22192 51.31 9.25127 51.31 12.41V39.4C51.3092 42.5582 50.0541 45.5868 47.8206 47.8197C45.5871 50.0526 42.5582 51.307 39.4 51.307Z" fill="white"/>
<path d="M33.774 13.27C32.1952 13.2709 30.6443 13.6864 29.2766 14.4749C27.9088 15.2634 26.772 16.3972 25.98 17.763C25.1879 16.3971 24.051 15.2632 22.683 14.4747C21.315 13.6862 19.7639 13.2708 18.185 13.27H10.149V18.275C10.1513 20.5655 10.8586 22.7998 12.1748 24.6744C13.491 26.549 15.3524 27.973 17.506 28.753C16.7256 29.4291 16.0995 30.265 15.6703 31.204C15.241 32.1431 15.0186 33.1635 15.018 34.196V38.538H21.139C22.0787 38.5363 23.0051 38.3162 23.8451 37.895C24.685 37.4738 25.4156 36.863 25.979 36.111C26.5423 36.8629 27.2727 37.4736 28.1125 37.8948C28.9523 38.316 29.8785 38.5362 30.818 38.538H36.939V34.196C36.9384 33.1635 36.7159 32.1431 36.2867 31.204C35.8574 30.265 35.2314 29.4291 34.451 28.753C36.6048 27.9732 38.4663 26.5492 39.7828 24.6746C41.0992 22.8 41.8066 20.5656 41.809 18.275V13.27H33.774ZM21.29 26.97C18.9837 26.9663 16.773 26.0485 15.1423 24.4177C13.5115 22.787 12.5937 20.5762 12.59 18.27V15.712H18.198C19.9413 15.712 21.6131 16.4045 22.8458 17.6372C24.0785 18.8699 24.771 20.5417 24.771 22.285V26.97H21.271H21.29ZM21.139 36.106H17.461V34.191C17.4649 32.9247 17.9697 31.7115 18.8651 30.8161C19.7605 29.9207 20.9737 29.416 22.24 29.412H24.758V32.488C24.758 33.4515 24.3752 34.3756 23.6939 35.0569C23.0126 35.7382 22.0885 36.121 21.125 36.121L21.139 36.106ZM34.498 36.121H30.819C29.8555 36.121 28.9314 35.7382 28.2501 35.0569C27.5687 34.3756 27.186 33.4515 27.186 32.488V29.397H29.704C30.9702 29.401 32.1835 29.9057 33.0789 30.8011C33.9743 31.6965 34.479 32.9097 34.483 34.176L34.498 36.121ZM39.368 18.286C39.3643 20.5922 38.4465 22.803 36.8157 24.4337C35.185 26.0645 32.9742 26.9823 30.668 26.986H27.2V22.27C27.2 20.5267 27.8925 18.8549 29.1252 17.6222C30.3579 16.3895 32.0297 15.697 33.773 15.697H39.381L39.368 18.286Z" fill="#6F93F4"/>
</svg>
