<svg xmlns="http://www.w3.org/2000/svg" width="32" height="32" viewBox="0 0 32 32"><defs><style>.a{fill:#01164e;}</style></defs><path class="a" d="M8.248,2.062V0H1.031A1.031,1.031,0,0,0,0,1.031V8.248H2.062V3.516l9.578,9.578,1.454-1.454L3.516,2.062Z"/><path class="a" d="M320.863,0h-7.217V2.062h4.732L308.8,11.64l1.454,1.454,9.578-9.578V8.248h2.062V1.031A1.031,1.031,0,0,0,320.863,0Z" transform="translate(-289.894)"/><path class="a" d="M319.832,318.378l-9.578-9.578-1.454,1.454,9.578,9.578h-4.732v2.062h7.217a1.031,1.031,0,0,0,1.031-1.031v-7.217h-2.062Z" transform="translate(-289.894 -289.894)"/><path class="a" d="M11.64,308.64l-9.578,9.589V313.5H0v7.217a1.031,1.031,0,0,0,1.031,1.031H8.248v-2.062H3.516l9.578-9.578Z" transform="translate(0 -289.744)"/></svg>