<svg xmlns="http://www.w3.org/2000/svg" width="10.62" height="10.62" viewBox="0 0 10.62 10.62"><defs><style>.a{opacity:0.498;}</style></defs><g class="a"><path d="M.311.8h10A.363.363,0,0,0,10.62.4a.363.363,0,0,0-.311-.4h-10A.363.363,0,0,0,0,.4.363.363,0,0,0,.311.8Z"/><g transform="translate(1.012 9.822)"><path d="M.5,482.8H9.1a.41.41,0,1,0,0-.8H.5a.41.41,0,1,0,0,.8Z" transform="translate(0 -482)"/></g><g transform="translate(0 7.367)"><path d="M.406,362.3h9.807a.4.4,0,1,0,0-.8H.406a.4.4,0,1,0,0,.8Z" transform="translate(0 -361.5)"/></g><g transform="translate(0 4.911)"><path d="M.311,241.8h10a.411.411,0,0,0,0-.8h-10a.411.411,0,0,0,0,.8Z" transform="translate(0 -241)"/></g><g transform="translate(0 2.456)"><path d="M.406,121.3h9.807a.4.4,0,1,0,0-.8H.406a.4.4,0,1,0,0,.8Z" transform="translate(0 -120.5)"/></g></g></svg>