<svg xmlns="http://www.w3.org/2000/svg" width="15.996" height="28.228" viewBox="0 0 15.996 28.228"><defs><style>.a{opacity:0.499;}.b{fill:#01164e;}</style></defs><g class="a" transform="translate(-110.933)"><g transform="translate(116.108 1.411)"><path class="b" d="M209.976,25.6h-4.7a.47.47,0,0,0,0,.941h4.7a.47.47,0,1,0,0-.941Z" transform="translate(-204.801 -25.6)"/></g><g transform="translate(123.636 1.411)"><path class="b" d="M342.275,25.6h-.47a.47.47,0,1,0,0,.941h.47a.47.47,0,1,0,0-.941Z" transform="translate(-341.334 -25.6)"/></g><g transform="translate(117.049 23.994)"><g transform="translate(0)"><path class="b" d="M224.333,435.2h-1.168a1.3,1.3,0,0,0-1.3,1.3v.227a1.3,1.3,0,0,0,1.3,1.3h1.168a1.3,1.3,0,0,0,1.3-1.3V436.5A1.3,1.3,0,0,0,224.333,435.2Zm.357,1.525a.357.357,0,0,1-.357.357h-1.168a.357.357,0,0,1-.357-.357V436.5a.357.357,0,0,1,.357-.357h1.168a.357.357,0,0,1,.357.357Z" transform="translate(-221.867 -435.2)"/></g></g><g transform="translate(110.933)"><path class="b" d="M125.229,0H112.634a1.7,1.7,0,0,0-1.7,1.7V26.527a1.7,1.7,0,0,0,1.7,1.7h12.594a1.7,1.7,0,0,0,1.7-1.7V1.7A1.7,1.7,0,0,0,125.229,0Zm.759,26.527a.761.761,0,0,1-.759.76H112.634a.761.761,0,0,1-.76-.759V1.7a.761.761,0,0,1,.76-.76h12.594a.761.761,0,0,1,.76.76V26.527Z" transform="translate(-110.933)"/></g><g transform="translate(110.933 2.823)"><g transform="translate(0)"><path class="b" d="M126.459,51.2H111.4a.471.471,0,0,0-.47.47V71.43a.471.471,0,0,0,.47.47h15.055a.471.471,0,0,0,.47-.47V51.67A.471.471,0,0,0,126.459,51.2Zm-.47,19.76H111.875V52.141h14.114Z" transform="translate(-110.934 -51.2)"/></g></g></g></svg>