<svg xmlns="http://www.w3.org/2000/svg" width="33.981" height="28.228" viewBox="0 0 33.981 28.228"><defs><style>.a{opacity:0.499;}.b{fill:#01164e;}</style></defs><g class="a" transform="translate(33.981 -43.339) rotate(90)"><g transform="translate(43.339)"><path class="b" d="M68.43,0H46.476a3.141,3.141,0,0,0-3.137,3.137V30.843a3.141,3.141,0,0,0,3.137,3.137H68.43a3.141,3.141,0,0,0,3.137-3.137V3.137A3.141,3.141,0,0,0,68.43,0Zm2.1,28.417h-2.45a.518.518,0,0,0,0,1.035h2.45v1.391a2.1,2.1,0,0,1-2.1,2.1H46.476a2.1,2.1,0,0,1-2.1-2.1V29.452H68.43a.518.518,0,0,0,0-1.035H44.374V3.137a2.1,2.1,0,0,1,2.1-2.1H68.43a2.1,2.1,0,0,1,2.1,2.1V4.883H44.374a.518.518,0,0,0,0,1.035H70.532Z" transform="translate(-43.339)"/></g><g transform="translate(56.935 30.69)"><circle class="b" cx="0.518" cy="0.518" r="0.518"/></g><g transform="translate(55.378 2.397)"><path class="b" d="M228.372,36.122h-3.114a.518.518,0,1,0,0,1.035h3.114a.518.518,0,1,0,0-1.035Z" transform="translate(-224.74 -36.122)"/></g></g></svg>