<svg xmlns="http://www.w3.org/2000/svg" width="10.62" height="10.62" viewBox="0 0 10.62 10.62"><defs><style>.a{fill:#fff;}</style></defs><path class="a" d="M10.309.8h-10A.363.363,0,0,1,0,.4.363.363,0,0,1,.311,0h10a.363.363,0,0,1,.311.4A.363.363,0,0,1,10.309.8Z"/><g transform="translate(0 9.822)"><path class="a" d="M10.309,482.8h-10a.411.411,0,0,1,0-.8h10a.411.411,0,0,1,0,.8Z" transform="translate(0 -482)"/></g><g transform="translate(0 7.367)"><path class="a" d="M9.065,362.3H.361a.4.4,0,0,1,0-.8h8.7a.4.4,0,0,1,0,.8Z" transform="translate(0 -361.5)"/></g><g transform="translate(0 4.911)"><path class="a" d="M10.309,241.8h-10a.411.411,0,0,1,0-.8h10a.411.411,0,0,1,0,.8Z" transform="translate(0 -241)"/></g><g transform="translate(0 2.456)"><path class="a" d="M9.065,121.3H.361a.4.4,0,0,1,0-.8h8.7a.4.4,0,0,1,0,.8Z" transform="translate(0 -120.5)"/></g></svg>