<svg xmlns="http://www.w3.org/2000/svg" width="10.62" height="10.62" viewBox="0 0 10.62 10.62"><defs><style>.a{opacity:0.498;}</style></defs><g class="a"><path d="M10.309.8h-10A.363.363,0,0,1,0,.4.363.363,0,0,1,.311,0h10a.363.363,0,0,1,.311.4A.363.363,0,0,1,10.309.8Z"/><g transform="translate(0 9.822)"><path d="M10.309,482.8h-10a.411.411,0,0,1,0-.8h10a.411.411,0,0,1,0,.8Z" transform="translate(0 -482)"/></g><g transform="translate(1.122 7.367)"><path d="M69.053,362.3H61.322a.408.408,0,0,1,0-.8h7.731a.408.408,0,0,1,0,.8Z" transform="translate(-61 -361.5)"/></g><g transform="translate(0 4.911)"><path d="M10.309,241.8h-10a.411.411,0,0,1,0-.8h10a.411.411,0,0,1,0,.8Z" transform="translate(0 -241)"/></g><g transform="translate(1.122 2.456)"><path d="M69.053,121.3H61.322a.408.408,0,0,1,0-.8h7.731a.408.408,0,0,1,0,.8Z" transform="translate(-61 -120.5)"/></g></g></svg>