<svg xmlns="http://www.w3.org/2000/svg" width="10.62" height="10.62" viewBox="0 0 10.62 10.62"><defs><style>.a{opacity:0.498;}</style></defs><g class="a"><path d="M.311.8h10A.363.363,0,0,0,10.62.4a.363.363,0,0,0-.311-.4h-10A.363.363,0,0,0,0,.4.363.363,0,0,0,.311.8Z" transform="translate(0)"/><g transform="translate(0 9.822)"><path d="M.311,482.8h10a.411.411,0,0,0,0-.8h-10a.411.411,0,0,0,0,.8Z" transform="translate(0 -482)"/></g><g transform="translate(1.194 7.367)"><path d="M.361,362.3h8.7a.4.4,0,0,0,0-.8H.361a.4.4,0,0,0,0,.8Z" transform="translate(0 -361.5)"/></g><g transform="translate(0 4.911)"><path d="M.311,241.8h10a.411.411,0,0,0,0-.8h-10a.411.411,0,0,0,0,.8Z" transform="translate(0 -241)"/></g><g transform="translate(1.194 2.456)"><path d="M.361,121.3h8.7a.4.4,0,0,0,0-.8H.361a.4.4,0,0,0,0,.8Z" transform="translate(0 -120.5)"/></g></g></svg>