<svg xmlns="http://www.w3.org/2000/svg" width="24" height="23.972" viewBox="0 0 24 23.972"><defs><style>.a{opacity:0.496;}.b{fill:#01164e;}</style></defs><g class="a" transform="translate(0 -0.85)"><g transform="translate(0 0.85)"><path class="b" d="M11.986,22.824H3a1,1,0,0,1-1-1V3.847a1,1,0,0,1,1-1h8.989a1,1,0,0,0,0-2H3a3,3,0,0,0-3,3V21.825a3,3,0,0,0,3,3h8.989a1,1,0,1,0,0-2Z" transform="translate(0 -0.85)"/></g><g transform="translate(7.939 5.844)"><path class="b" d="M185.863,113.445l-6.073-5.993a1,1,0,0,0-1.4,1.422l4.34,4.283H171.1a1,1,0,0,0,0,2h11.629l-4.34,4.283a1,1,0,1,0,1.4,1.422l6.073-5.993a1,1,0,0,0,0-1.422Z" transform="translate(-170.1 -107.165)"/></g></g></svg>