<svg xmlns="http://www.w3.org/2000/svg" width="12.332" height="16.185" viewBox="0 0 12.332 16.185"><defs><style>.a{opacity:0.504;}.b{fill:#01164e;}</style></defs><g class="a" transform="translate(-63.75)"><g transform="translate(63.75)"><path class="b" d="M74.54,5.4h-.771V3.854a3.854,3.854,0,1,0-7.707,0V5.4h-.771A1.546,1.546,0,0,0,63.75,6.936v7.707a1.546,1.546,0,0,0,1.541,1.541H74.54a1.546,1.546,0,0,0,1.541-1.541V6.936A1.546,1.546,0,0,0,74.54,5.4Zm-2.235,0H67.527V3.854a2.389,2.389,0,1,1,4.778,0Z" transform="translate(-63.75)"/></g></g></svg>