<svg xmlns="http://www.w3.org/2000/svg" width="32.63" height="26.041" viewBox="0 0 32.63 26.041"><defs><style>.a{fill:#d9c88d;}</style></defs><path class="a" d="M238.969,373.826a9.286,9.286,0,0,0-8.026,4.625,9.286,9.286,0,0,0-8.026-4.625h-8.289v5.155a11.493,11.493,0,0,0,7.58,10.793,7.427,7.427,0,0,0-2.56,5.612v4.481h6.3a6.243,6.243,0,0,0,4.994-2.5,6.243,6.243,0,0,0,4.994,2.5h6.3v-4.481a7.426,7.426,0,0,0-2.56-5.612,11.493,11.493,0,0,0,7.58-10.793v-5.155Z" transform="translate(-214.628 -373.826)"/></svg>