<svg xmlns="http://www.w3.org/2000/svg" xmlns:xlink="http://www.w3.org/1999/xlink" width="15.904" height="163.322" viewBox="0 0 15.904 163.322"><defs><style>.a,.c{fill:none;}.b{clip-path:url(#a);}.c{stroke:#6f93f4;stroke-linecap:round;stroke-linejoin:round;stroke-width:2px;}</style><clipPath id="a"><rect class="a" width="15.904" height="163.322"/></clipPath></defs><g class="b"><g transform="translate(-648.856 -594.574)"><path class="c" d="M1.392,5.806,4.352,8.724,13.076,0" transform="translate(650.27 595.988)"/></g><g transform="translate(-648.856 -570.574)"><path class="c" d="M1.392,5.806,4.352,8.724,13.076,0" transform="translate(650.27 595.988)"/></g><g transform="translate(-648.856 -546.574)"><path class="c" d="M1.392,5.806,4.352,8.724,13.076,0" transform="translate(650.27 595.988)"/></g><g transform="translate(-648.856 -522.574)"><path class="c" d="M1.392,5.806,4.352,8.724,13.076,0" transform="translate(650.27 595.988)"/></g><g transform="translate(-648.856 -498.574)"><path class="c" d="M1.392,5.806,4.352,8.724,13.076,0" transform="translate(650.27 595.988)"/></g><g transform="translate(-648.856 -474.574)"><path class="c" d="M1.392,5.806,4.352,8.724,13.076,0" transform="translate(650.27 595.988)"/></g><g transform="translate(-648.856 -450.574)"><path class="c" d="M1.392,5.806,4.352,8.724,13.076,0" transform="translate(650.27 595.988)"/></g></g></svg>