<svg xmlns="http://www.w3.org/2000/svg" width="18.015" height="12.868" viewBox="0 0 18.015 12.868"><defs><style>.a{fill:#6f93f4;}</style></defs><g transform="translate(0 -68.267)"><g transform="translate(0 68.267)"><path class="a" d="M17.372,68.267H.643A.643.643,0,0,0,0,68.91V80.492a.643.643,0,0,0,.643.643H17.372a.643.643,0,0,0,.643-.643V68.91A.643.643,0,0,0,17.372,68.267Zm-1.055,1.287L9.008,75.176,1.7,69.554Zm.412,10.294H1.287V70.861L8.616,76.5a.643.643,0,0,0,.784,0l7.329-5.637Z" transform="translate(0 -68.267)"/></g></g></svg>