<svg xmlns="http://www.w3.org/2000/svg" width="24" height="24" viewBox="0 0 24 24"><defs><style>.a{fill:#6f93f4;}</style></defs><path class="a" d="M12,0A12,12,0,1,1,0,12,12.014,12.014,0,0,1,12,0Zm0,21.818A9.818,9.818,0,1,0,2.182,12,9.829,9.829,0,0,0,12,21.818Z" transform="translate(0 0)"/><path class="a" d="M146.578,70A1.577,1.577,0,1,1,145,71.577,1.579,1.579,0,0,1,146.578,70Z" transform="translate(-134.578 -64.968)"/><path class="a" d="M151.183,140a1.183,1.183,0,0,1,1.183,1.183v7.1a1.183,1.183,0,0,1-2.365,0v-7.1A1.183,1.183,0,0,1,151.183,140Z" transform="translate(-139.183 -130.307)"/></svg>