<svg xmlns="http://www.w3.org/2000/svg" width="70.664" height="70.664" viewBox="0 0 70.664 70.664"><defs><style>.a{fill:#fff;}.b{fill:#6f93f4;}</style></defs><g transform="translate(35.5 35.5)"><g transform="translate(-35.5 -35.5)"><path class="a" d="M54.1,70.664H16.565A16.565,16.565,0,0,1,0,54.1V16.565A16.565,16.565,0,0,1,16.565,0H54.1A16.565,16.565,0,0,1,70.664,16.565V54.1A16.565,16.565,0,0,1,54.1,70.664"/><path class="b" d="M96.858,84.7a12.539,12.539,0,0,0-10.841,6.249A12.539,12.539,0,0,0,75.176,84.7H64v6.962a15.517,15.517,0,0,0,10.233,14.573,10.023,10.023,0,0,0-3.46,7.57v6.039h8.513a8.429,8.429,0,0,0,6.731-3.376,8.429,8.429,0,0,0,6.731,3.376h8.513V113.8a10.023,10.023,0,0,0-3.46-7.57,15.517,15.517,0,0,0,10.233-14.573V84.7ZM79.5,103.76a12.12,12.12,0,0,1-12.1-12.1V88.1h7.8a9.142,9.142,0,0,1,9.142,9.142v6.521H79.475Zm-.21,12.707H74.17V113.8a6.668,6.668,0,0,1,6.647-6.647h3.5v4.278a5.053,5.053,0,0,1-5.053,5.053m18.6,0H92.748a5.053,5.053,0,0,1-5.053-5.053v-4.3h3.5a6.668,6.668,0,0,1,6.647,6.647Zm6.773-24.806a12.12,12.12,0,0,1-12.1,12.1H87.715V97.218a9.142,9.142,0,0,1,9.142-9.142h7.8Z" transform="translate(-50.58 -66.94)"/></g></g></svg>