<svg xmlns="http://www.w3.org/2000/svg" xmlns:xlink="http://www.w3.org/1999/xlink" width="235" height="12" viewBox="0 0 235 12"><defs><style>.a{fill:none;}.b{clip-path:url(#a);}.c{fill:#01164e;}</style><clipPath id="a"><rect class="a" width="235" height="12"/></clipPath></defs><g class="b"><g transform="translate(-1244 -769)"><circle class="c" cx="6" cy="6" r="6" transform="translate(1244 769)"/></g><g transform="translate(-1224 -769)"><circle class="c" cx="6" cy="6" r="6" transform="translate(1244 769)"/></g><g transform="translate(-1204 -769)"><circle class="c" cx="6" cy="6" r="6" transform="translate(1244 769)"/></g><g transform="translate(-1184 -769)"><circle class="c" cx="6" cy="6" r="6" transform="translate(1244 769)"/></g><g transform="translate(-1164 -769)"><circle class="c" cx="6" cy="6" r="6" transform="translate(1244 769)"/></g><g transform="translate(-1144 -769)"><circle class="c" cx="6" cy="6" r="6" transform="translate(1244 769)"/></g><g transform="translate(-1124 -769)"><circle class="c" cx="6" cy="6" r="6" transform="translate(1244 769)"/></g><g transform="translate(-1104 -769)"><circle class="c" cx="6" cy="6" r="6" transform="translate(1244 769)"/></g><g transform="translate(-1084 -769)"><circle class="c" cx="6" cy="6" r="6" transform="translate(1244 769)"/></g><g transform="translate(-1064 -769)"><circle class="c" cx="6" cy="6" r="6" transform="translate(1244 769)"/></g><g transform="translate(-1044 -769)"><circle class="c" cx="6" cy="6" r="6" transform="translate(1244 769)"/></g><g transform="translate(-1024 -769)"><circle class="c" cx="6" cy="6" r="6" transform="translate(1244 769)"/></g></g></svg>