<svg width="33" height="27" viewBox="0 0 33 27" fill="none" xmlns="http://www.w3.org/2000/svg">
<path d="M24.341 0C22.7154 0.000961699 21.1186 0.428637 19.7101 1.24026C18.3017 2.05189 17.1309 3.21903 16.315 4.625C15.499 3.21903 14.3283 2.05189 12.9199 1.24026C11.5114 0.428637 9.91458 0.000961699 8.289 0H0V5.155C0.00274403 7.51454 0.731653 9.81609 2.08775 11.747C3.44385 13.6779 5.36141 15.1446 7.57999 15.948C6.77611 16.6454 6.13152 17.5074 5.68983 18.4757C5.24815 19.4439 5.01971 20.4958 5.01999 21.56V26.041H11.32C12.2894 26.0406 13.2453 25.8145 14.1121 25.3806C14.979 24.9467 15.7328 24.3168 16.314 23.541C16.8952 24.3168 17.649 24.9467 18.5159 25.3806C19.3827 25.8145 20.3386 26.0406 21.308 26.041H27.608V21.56C27.6083 20.4958 27.3799 19.4439 26.9382 18.4756C26.4966 17.5074 25.8519 16.6454 25.048 15.948C27.2666 15.1446 29.1841 13.6779 30.5402 11.747C31.8963 9.81609 32.6252 7.51454 32.628 5.155V0H24.341Z" fill="#6F93F4"/>
</svg>
