<svg xmlns="http://www.w3.org/2000/svg" width="24" height="24" viewBox="0 0 24 24"><defs><style>.a{fill:#01164e;}</style></defs><path class="a" d="M9.929,0H.871A.873.873,0,0,0,0,.871V9.929a.873.873,0,0,0,.871.871H9.929a.873.873,0,0,0,.871-.871V.871A.873.873,0,0,0,9.929,0ZM9.058,9.058H1.742V1.742H9.058Z"/><g transform="translate(13.2)"><path class="a" d="M155.929,0h-9.058A.873.873,0,0,0,146,.871V9.929a.873.873,0,0,0,.871.871h9.058a.873.873,0,0,0,.871-.871V.871A.873.873,0,0,0,155.929,0Zm-.871,9.058h-7.316V1.742h7.316Z" transform="translate(-146)"/></g><g transform="translate(0 13.2)"><path class="a" d="M9.929,146H.871a.873.873,0,0,0-.871.871v9.058a.873.873,0,0,0,.871.871H9.929a.873.873,0,0,0,.871-.871v-9.058A.873.873,0,0,0,9.929,146Zm-.871,9.058H1.742v-7.316H9.058Z" transform="translate(0 -146)"/></g><g transform="translate(13.2 13.2)"><path class="a" d="M155.929,146h-9.058a.873.873,0,0,0-.871.871v9.058a.873.873,0,0,0,.871.871h9.058a.873.873,0,0,0,.871-.871v-9.058A.873.873,0,0,0,155.929,146Zm-.871,9.058h-7.316v-7.316h7.316Z" transform="translate(-146 -146)"/></g></svg>