<svg xmlns="http://www.w3.org/2000/svg" width="28" height="28" viewBox="0 0 28 28"><defs><style>.a{fill:#01164e;}</style></defs><g transform="translate(-0.273 0)"><path class="a" d="M.373,2.6,2.209,5.813A.459.459,0,0,0,2.5,6.03l1.713.428,5.874,5.874.649-.649L4.765,5.718A.458.458,0,0,0,4.552,5.6L2.907,5.184,1.344,2.448l1.34-1.34L5.422,2.672l.413,1.646a.458.458,0,0,0,.121.213L11.922,10.5l.649-.649L6.7,3.974,6.268,2.262a.46.46,0,0,0-.217-.287L2.838.139a.459.459,0,0,0-.551.074L.451,2.049A.459.459,0,0,0,.373,2.6Zm0,0" transform="translate(-0.039 -0.075)"/><path class="a" d="M184.726,174.368l-10.1,10.1-.649-.649,10.1-10.1Zm0,0" transform="translate(-165.086 -165.097)"/><path class="a" d="M52.736,399.059a.459.459,0,0,0-.393-.223H49.589a.458.458,0,0,0-.393.223l-1.377,2.295a.459.459,0,0,0,0,.473L49.2,404.12a.459.459,0,0,0,.393.223h2.754a.459.459,0,0,0,.393-.223l1.377-2.295a.459.459,0,0,0,0-.473Zm-.653,4.367H49.848l-1.1-1.836,1.1-1.836h2.234l1.1,1.836Zm0,0" transform="translate(-45.185 -379.108)"/><path class="a" d="M22.664,11.2a5.578,5.578,0,0,0,5.426-6.95.466.466,0,0,0-.782-.217l-2.9,2.9-2.3-.768-.768-2.3,2.9-2.9a.467.467,0,0,0-.219-.783A5.58,5.58,0,0,0,17.066,5.6a5.475,5.475,0,0,0,.113,1.093L6.964,16.907a5.5,5.5,0,0,0-1.093-.113,5.6,5.6,0,1,0,5.6,5.6,5.489,5.489,0,0,0-.113-1.093L13.8,18.852l1.07,1.07a.467.467,0,0,0,.66,0l.233-.233a.523.523,0,0,1,.741.739h0l-.233.233a.466.466,0,0,0,0,.66l5.565,5.564a3.765,3.765,0,1,0,5.348-5.3l-.024-.024L21.594,16a.466.466,0,0,0-.66,0l-.233.233a.523.523,0,0,1-.741-.739h0l.233-.233a.466.466,0,0,0,0-.66l-1.07-1.07,2.446-2.446A5.489,5.489,0,0,0,22.664,11.2ZM24.5,27.055a2.835,2.835,0,0,1-.992-.181l3.643-3.643A2.829,2.829,0,0,1,24.5,27.055ZM19.212,14.932a1.456,1.456,0,0,0,2.052,2.05L26.5,22.221c.057.057.11.117.161.178l-3.988,3.988c-.061-.051-.121-.1-.178-.161l-5.239-5.239a1.456,1.456,0,0,0-2.052-2.05l-.746-.746,4.009-4ZM21.1,10.241,10.514,20.82a.467.467,0,0,0-.123.443A4.7,4.7,0,1,1,7,17.871a.471.471,0,0,0,.443-.123L18.021,7.169a.466.466,0,0,0,.123-.443A4.642,4.642,0,0,1,22.929.942L20.468,3.4a.466.466,0,0,0-.113.477l.933,2.8a.467.467,0,0,0,.3.295l2.8.933a.466.466,0,0,0,.477-.112L27.32,5.334c.006.089.008.177.008.265a4.641,4.641,0,0,1-5.792,4.52.467.467,0,0,0-.443.123h0Zm0,0" transform="translate(0 0)"/><path class="a" d="M388.129,387.214l-.649.649-4.589-4.589.649-.649Zm0,0" transform="translate(-363.673 -363.681)"/></g></svg>