<svg xmlns="http://www.w3.org/2000/svg" width="24.003" height="24.003" viewBox="0 0 24.003 24.003"><defs><style>.a{opacity:0.503;}.b{fill:#01164e;}</style></defs><g class="a"><path class="b" d="M21.939,51.25a.88.88,0,0,0-.877.883v5.213A1.467,1.467,0,0,1,19.6,58.816H3.211a1.467,1.467,0,0,1-1.462-1.471V42.036a1.467,1.467,0,0,1,1.462-1.471H8.4a.883.883,0,0,0,0-1.765H3.211A3.232,3.232,0,0,0,0,42.036V57.351a3.232,3.232,0,0,0,3.211,3.23H19.605a3.232,3.232,0,0,0,3.211-3.236V52.133a.88.88,0,0,0-.877-.883" transform="translate(0 -36.579)"/><path class="b" d="M124.489,1.475l-.666-.669a2.83,2.83,0,0,0-4.018,0L109.662,11a.859.859,0,0,0-.216.378l-1.338,4.839a.861.861,0,0,0,.22.831.851.851,0,0,0,.827.221l4.815-1.338a.853.853,0,0,0,.376-.217L124.489,5.519a2.876,2.876,0,0,0,0-4.038M112.155,14.654l-2,.561.558-2.013Zm9.517-8.734-7.895,7.939L111.5,11.571l7.9-7.934Zm1.611-1.613-.4.406L120.6,2.425l.4-.406a1.134,1.134,0,0,1,1.605,0l.666.669a1.148,1.148,0,0,1,0,1.619" transform="translate(-101.314 0.031)"/></g></svg>