<svg xmlns="http://www.w3.org/2000/svg" width="24" height="24" viewBox="0 0 24 24"><defs><style>.a{fill:#01164e;}</style></defs><path class="a" d="M12,6C10.772,6,0,5.916,0,3S10.772,0,12,0,24,.084,24,3,13.228,6,12,6ZM1.588,3C2.32,3.568,5.833,4.5,12,4.5S21.68,3.568,22.412,3C21.68,2.432,18.167,1.5,12,1.5S2.32,2.432,1.588,3Zm20.939.116h.01Z"/><path class="a" d="M12,12c-1.228,0-12-.084-12-3a.75.75,0,0,1,1.5-.086C1.957,9.467,5.507,10.5,12,10.5S22.043,9.467,22.505,8.914A.75.75,0,0,1,24,9c0,2.916-10.772,3-12,3ZM22.5,9ZM1.5,9Z"/><path class="a" d="M12,18c-1.228,0-12-.084-12-3a.75.75,0,0,1,1.5-.086C1.957,15.467,5.507,16.5,12,16.5s10.043-1.033,10.505-1.586A.75.75,0,0,1,24,15c0,2.916-10.772,3-12,3Zm10.5-3Zm-21,0Z"/><path class="a" d="M12,24c-1.228,0-12-.084-12-3V3A.75.75,0,0,1,1.5,3V20.919C1.981,21.475,5.53,22.5,12,22.5s10.019-1.025,10.5-1.581V3A.75.75,0,0,1,24,3V21C24,23.916,13.228,24,12,24Z"/><circle class="a" cx="1" cy="1" r="1" transform="translate(4 13)"/><circle class="a" cx="1" cy="1" r="1" transform="translate(4 7)"/><circle class="a" cx="1" cy="1" r="1" transform="translate(4 19)"/></svg>