<svg xmlns="http://www.w3.org/2000/svg" width="30" height="22" viewBox="0 0 30 22"><defs><style>.a{fill:#01164e;}</style></defs><g transform="translate(0 -76)"><g transform="translate(0 76)"><path class="a" d="M26.3,85.747A8.165,8.165,0,0,0,18.516,76a7.847,7.847,0,0,0-6.784,4,5.958,5.958,0,0,0-5.494.793A6.435,6.435,0,0,0,3.575,85.81,6.447,6.447,0,0,0,0,91.583a6.731,6.731,0,0,0,.118,1.256A6.236,6.236,0,0,0,6.152,98H23.789A6.323,6.323,0,0,0,30,91.583,6.431,6.431,0,0,0,26.3,85.747ZM23.789,96.167H6.152a4.494,4.494,0,0,1-4.395-4.583,4.6,4.6,0,0,1,2.994-4.3l.624-.231-.04-.689a4.622,4.622,0,0,1,1.9-4.057,4.383,4.383,0,0,1,4.544-.321l.792.374.368-.822a6.167,6.167,0,0,1,5.578-3.706,6.3,6.3,0,0,1,6.152,6.417,8.213,8.213,0,0,1-.446,2.519,7.271,7.271,0,0,0,.982.5,4.59,4.59,0,0,1,3.038,4.315A4.525,4.525,0,0,1,23.789,96.167Z" transform="translate(0 -76)"/></g></g></svg>