<svg xmlns="http://www.w3.org/2000/svg" width="24" height="24" viewBox="0 0 24 24"><defs><style>.a{fill:#01164e;}</style></defs><path class="a" d="M9.949,0H.9A.9.9,0,0,0,0,.9V9.949a.9.9,0,0,0,.9.9H9.949a.9.9,0,0,0,.9-.9V.9A.9.9,0,0,0,9.949,0Zm-.9,9.044H1.809V1.809H9.044V9.044Z"/><g transform="translate(13.147)"><path class="a" d="M248.882,0h-9.044a.9.9,0,0,0-.9.9V9.949a.9.9,0,0,0,.9.9h9.044a.9.9,0,0,0,.9-.9V.9A.9.9,0,0,0,248.882,0Zm-.9,9.044h-7.235V1.809h7.235Z" transform="translate(-238.933)"/></g><g transform="translate(0 13.147)"><path class="a" d="M9.949,238.933H.9a.9.9,0,0,0-.9.9v9.044a.9.9,0,0,0,.9.9H9.949a.9.9,0,0,0,.9-.9v-9.044A.9.9,0,0,0,9.949,238.933Zm-.9,9.044H1.809v-7.235H9.044v7.235Z" transform="translate(0 -238.933)"/></g><g transform="translate(13.147 13.147)"><path class="a" d="M248.882,243.455h-3.618v-3.618a.9.9,0,1,0-1.809,0v3.618h-3.618a.9.9,0,1,0,0,1.809h3.618v3.618a.9.9,0,1,0,1.809,0v-3.618h3.618a.9.9,0,1,0,0-1.809Z" transform="translate(-238.933 -238.933)"/></g></svg>