<svg xmlns="http://www.w3.org/2000/svg" width="16" height="16" viewBox="0 0 16 16"><defs><style>.a{fill:#ccd1de;}</style></defs><path class="a" d="M14.632,47.107a.587.587,0,0,0-.585.589v3.478a.978.978,0,0,1-.975.981H2.141a.978.978,0,0,1-.975-.981V40.959a.978.978,0,0,1,.975-.981H5.6a.589.589,0,0,0,0-1.178H2.141A2.156,2.156,0,0,0,0,40.959V51.179a2.156,2.156,0,0,0,2.141,2.155H13.075a2.156,2.156,0,0,0,2.141-2.159V47.7a.587.587,0,0,0-.585-.589" transform="translate(0 -37.334)"/><path class="a" d="M118.911.963l-.44-.442a1.868,1.868,0,0,0-2.653,0l-6.7,6.728a.567.567,0,0,0-.143.249l-.883,3.194a.568.568,0,0,0,.145.549.562.562,0,0,0,.546.146l3.179-.884a.563.563,0,0,0,.248-.143l6.7-6.728a1.9,1.9,0,0,0,0-2.666m-8.142,8.7-1.323.37.368-1.329ZM117.051,3.9,111.84,9.138l-1.5-1.51,5.215-5.237Zm1.063-1.065-.267.268-1.5-1.51.267-.268a.749.749,0,0,1,1.06,0l.44.442a.758.758,0,0,1,0,1.069" transform="translate(-103.457 0.031)"/></svg>