<svg xmlns="http://www.w3.org/2000/svg" width="23.999" height="17.999" viewBox="0 0 23.999 17.999"><defs><style>.a{opacity:0.498;}.b{fill:#01164e;}</style></defs><g class="a" transform="translate(0 -64.444)"><path class="b" d="M12,64.444a12.807,12.807,0,0,0-12,9,12.807,12.807,0,0,0,12,9,12.807,12.807,0,0,0,12-9A12.807,12.807,0,0,0,12,64.444Zm0,15a6,6,0,1,1,6-6A6,6,0,0,1,12,79.444Z"/><path class="b" d="M198.455,194.212a3,3,0,1,1-4.242,0,3,3,0,0,1,4.242,0" transform="translate(-184.334 -122.89)"/></g></svg>