<svg xmlns="http://www.w3.org/2000/svg" width="20.278" height="24" viewBox="0 0 20.278 24"><defs><style>.a{fill:#6f93f4;opacity:0.948;}</style></defs><path class="a" d="M17.94,7.377l.941-.941a.936.936,0,0,0-1.324-1.324l-.941.941a10.041,10.041,0,0,0-5.541-2.3V1.873h.9A.936.936,0,0,0,11.98,0H8.3a.936.936,0,0,0,0,1.873h.9V3.757a10.141,10.141,0,1,0,8.737,3.62Zm-7.8,14.75a8.27,8.27,0,1,1,8.267-8.271A8.278,8.278,0,0,1,10.139,22.127ZM14.476,9.518a.936.936,0,0,1,0,1.324L10.8,14.519a.936.936,0,0,1-1.324-1.324l3.675-3.677A.936.936,0,0,1,14.476,9.518Zm0,0"/></svg>